virtua-grotesk-regular.ufo
<glyph name="dollar" format="2">
	<unicode hex="0024"/>
	<advance width="696"/>
	<outline>
		<contour>
			<point x="322" y="-102" type="line"/>
			<point x="378" y="-102" type="line"/>
			<point x="394" y="-86" type="line"/>
			<point x="394" y="-20" type="line"/>
			<point x="402" y="-12" type="line"/>
			<point x="546" y="-4"/>
			<point x="656" y="65"/>
			<point x="656" y="198" type="curve" smooth="yes"/>
			<point x="656" y="338"/>
			<point x="592" y="400"/>
			<point x="382" y="444" type="curve" smooth="yes"/>
			<point x="238" y="474"/>
			<point x="170" y="504"/>
			<point x="170" y="578" type="curve" smooth="yes"/>
			<point x="170" y="654"/>
			<point x="222" y="694"/>
			<point x="340" y="694" type="curve" smooth="yes"/>
			<point x="458" y="694"/>
			<point x="516" y="620"/>
			<point x="528" y="564" type="curve"/>
			<point x="544" y="548" type="line"/>
			<point x="612" y="548" type="line"/>
			<point x="628" y="564" type="line"/>
			<point x="628" y="580" type="line"/>
			<point x="605" y="677"/>
			<point x="544" y="764"/>
			<point x="402" y="782" type="curve"/>
			<point x="394" y="792" type="line"/>
			<point x="394" y="862" type="line"/>
			<point x="378" y="878" type="line"/>
			<point x="324" y="878" type="line"/>
			<point x="308" y="862" type="line"/>
			<point x="308" y="792" type="line"/>
			<point x="300" y="784" type="line"/>
			<point x="140" y="770"/>
			<point x="70" y="678"/>
			<point x="70" y="578" type="curve" smooth="yes"/>
			<point x="70" y="452"/>
			<point x="160" y="398"/>
			<point x="332" y="362" type="curve" smooth="yes"/>
			<point x="526" y="322"/>
			<point x="556" y="276"/>
			<point x="556" y="198" type="curve" smooth="yes"/>
			<point x="556" y="106"/>
			<point x="462" y="74"/>
			<point x="366" y="74" type="curve" smooth="yes"/>
			<point x="242" y="74"/>
			<point x="148" y="142"/>
			<point x="140" y="246" type="curve"/>
			<point x="124" y="262" type="line"/>
			<point x="56" y="262" type="line"/>
			<point x="40" y="246" type="line"/>
			<point x="40" y="230" type="line"/>
			<point x="47" y="114"/>
			<point x="134" y="10"/>
			<point x="298" y="-12" type="curve"/>
			<point x="306" y="-20" type="line"/>
			<point x="306" y="-86" type="line"/>
		</contour>
	</outline>
</glyph>
<glyph name="percent" format="2">
	<unicode hex="0025"/>
	<advance width="936"/>
	<outline>
		<contour>
			<point x="192" y="0" type="line"/>
			<point x="240" y="0" type="line"/>
			<point x="256" y="8" type="line"/>
			<point x="752" y="736" type="line"/>
			<point x="752" y="752" type="line"/>
			<point x="736" y="768" type="line"/>
			<point x="680" y="768" type="line"/>
			<point x="664" y="760" type="line"/>
			<point x="176" y="32" type="line"/>
			<point x="176" y="16" type="line"/>
		</contour>
		<contour>
			<point x="696" y="-16" type="curve" smooth="yes"/>
			<point x="836" y="-16"/>
			<point x="896" y="84"/>
			<point x="896" y="184" type="curve" smooth="yes"/>
			<point x="896" y="288"/>
			<point x="836" y="384"/>
			<point x="696" y="384" type="curve" smooth="yes"/>
			<point x="556" y="384"/>
			<point x="496" y="288"/>
			<point x="496" y="184" type="curve" smooth="yes"/>
			<point x="496" y="84"/>
			<point x="556" y="-16"/>
		</contour>
		<contour>
			<point x="696" y="56" type="curve" smooth="yes"/>
			<point x="608" y="56"/>
			<point x="580" y="136"/>
			<point x="580" y="184" type="curve" smooth="yes"/>
			<point x="580" y="236"/>
			<point x="608" y="312"/>
			<point x="696" y="312" type="curve" smooth="yes"/>
			<point x="784" y="312"/>
			<point x="808" y="236"/>
			<point x="808" y="184" type="curve" smooth="yes"/>
			<point x="808" y="136"/>
			<point x="784" y="56"/>
		</contour>
		<contour>
			<point x="240" y="384" type="curve" smooth="yes"/>
			<point x="380" y="384"/>
			<point x="440" y="484"/>
			<point x="440" y="584" type="curve" smooth="yes"/>
			<point x="440" y="688"/>
			<point x="380" y="784"/>
			<point x="240" y="784" type="curve" smooth="yes"/>
			<point x="100" y="784"/>
			<point x="40" y="688"/>
			<point x="40" y="584" type="curve" smooth="yes"/>
			<point x="40" y="484"/>
			<point x="100" y="384"/>
		</contour>
		<contour>
			<point x="240" y="456" type="curve" smooth="yes"/>
			<point x="152" y="456"/>
			<point x="124" y="536"/>
			<point x="124" y="584" type="curve" smooth="yes"/>
			<point x="124" y="636"/>
			<point x="152" y="712"/>
			<point x="240" y="712" type="curve" smooth="yes"/>
			<point x="328" y="712"/>
			<point x="352" y="636"/>
			<point x="352" y="584" type="curve" smooth="yes"/>
			<point x="352" y="536"/>
			<point x="328" y="456"/>
		</contour>
	</outline>
</glyph>
<glyph name="quotesingle" format="2">
	<unicode hex="0027"/>
	<advance width="160"/>
	<outline>
		<contour>
			<point x="72" y="464" type="line"/>
			<point x="88" y="464" type="line"/>
			<point x="104" y="480" type="line"/>
			<point x="128" y="642" type="line"/>
			<point x="128" y="752" type="line"/>
			<point x="112" y="768" type="line"/>
			<point x="48" y="768" type="line"/>
			<point x="32" y="752" type="line"/>
			<point x="32" y="642" type="line"/>
			<point x="56" y="480" type="line"/>
		</contour>
	</outline>
</glyph>
<glyph name="parenleft" format="2">
	<unicode hex="0028"/>
	<advance width="294"/>
	<outline>
		<contour>
			<point x="188" y="-106" type="line"/>
			<point x="238" y="-106" type="line"/>
			<point x="254" y="-90" type="line"/>
			<point x="254" y="-74" type="line"/>
			<point x="186" y="38"/>
			<point x="142" y="220"/>
			<point x="142" y="368" type="curve" smooth="yes"/>
			<point x="142" y="548"/>
			<point x="178" y="680"/>
			<point x="254" y="800" type="curve"/>
			<point x="254" y="816" type="line"/>
			<point x="238" y="832" type="line"/>
			<point x="182" y="832" type="line"/>
			<point x="166" y="816" type="line"/>
			<point x="94" y="696"/>
			<point x="40" y="576"/>
			<point x="40" y="368" type="curve" smooth="yes"/>
			<point x="40" y="184"/>
			<point x="96" y="14"/>
			<point x="172" y="-90" type="curve"/>
		</contour>
	</outline>
</glyph>
<glyph name="parenright" format="2">
	<unicode hex="0029"/>
	<advance width="294"/>
	<outline>
		<contour>
			<point x="106" y="-106" type="line"/>
			<point x="122" y="-90" type="line"/>
			<point x="198" y="14"/>
			<point x="254" y="184"/>
			<point x="254" y="368" type="curve" smooth="yes"/>
			<point x="254" y="576"/>
			<point x="200" y="696"/>
			<point x="128" y="816" type="curve"/>
			<point x="112" y="832" type="line"/>
			<point x="56" y="832" type="line"/>
			<point x="40" y="816" type="line"/>
			<point x="40" y="800" type="line"/>
			<point x="116" y="680"/>
			<point x="152" y="548"/>
			<point x="152" y="368" type="curve" smooth="yes"/>
			<point x="152" y="220"/>
			<point x="108" y="38"/>
			<point x="40" y="-74" type="curve"/>
			<point x="40" y="-90" type="line"/>
			<point x="56" y="-106" type="line"/>
		</contour>
	</outline>
</glyph>
<glyph name="comma" format="2">
	<unicode hex="002C"/>
	<advance width="240"/>
	<outline>
		<contour>
			<point x="88" y="-144" type="line"/>
			<point x="104" y="-144" type="line"/>
			<point x="120" y="-136" type="line"/>
			<point x="184" y="0" type="line"/>
			<point x="184" y="96" type="line"/>
			<point x="168" y="112" type="line"/>
			<point x="72" y="112" type="line"/>
			<point x="56" y="96" type="line"/>
			<point x="56" y="16" type="line"/>
			<point x="72" y="0" type="line"/>
			<point x="96" y="0" type="line"/>
			<point x="104" y="-8" type="line"/>
			<point x="104" y="-24" type="line"/>
			<point x="72" y="-112" type="line"/>
			<point x="72" y="-128" type="line"/>
		</contour>
	</outline>
</glyph>
<glyph name="hyphen" format="2">
	<unicode hex="002D"/>
	<advance width="392"/>
	<outline>
		<contour>
			<point x="56" y="280" type="line"/>
			<point x="336" y="280" type="line"/>
			<point x="352" y="296" type="line"/>
			<point x="352" y="352" type="line"/>
			<point x="336" y="368" type="line"/>
			<point x="56" y="368" type="line"/>
			<point x="40" y="352" type="line"/>
			<point x="40" y="296" type="line"/>
		</contour>
	</outline>
</glyph>
<glyph name="period" format="2">
	<unicode hex="002E"/>
	<advance width="240"/>
	<outline>
		<contour>
			<point x="72" y="0" type="line"/>
			<point x="168" y="0" type="line"/>
			<point x="184" y="16" type="line"/>
			<point x="184" y="112" type="line"/>
			<point x="168" y="128" type="line"/>
			<point x="72" y="128" type="line"/>
			<point x="56" y="112" type="line"/>
			<point x="56" y="16" type="line"/>
		</contour>
	</outline>
</glyph>
<glyph name="zero" format="2">
	<unicode hex="0030"/>
	<advance width="664"/>
	<outline>
		<contour>
			<point x="332" y="-16" type="curve" smooth="yes"/>
			<point x="460" y="-16"/>
			<point x="616" y="80"/>
			<point x="616" y="372" type="curve" smooth="yes"/>
			<point x="616" y="664"/>
			<point x="460" y="760"/>
			<point x="332" y="760" type="curve" smooth="yes"/>
			<point x="204" y="760"/>
			<point x="48" y="664"/>
			<point x="48" y="372" type="curve" smooth="yes"/>
			<point x="48" y="80"/>
			<point x="204" y="-16"/>
		</contour>
		<contour>
			<point x="332" y="72" type="curve" smooth="yes"/>
			<point x="228" y="72"/>
			<point x="148" y="176"/>
			<point x="148" y="372" type="curve" smooth="yes"/>
			<point x="148" y="568"/>
			<point x="228" y="672"/>
			<point x="332" y="672" type="curve" smooth="yes"/>
			<point x="436" y="672"/>
			<point x="516" y="568"/>
			<point x="516" y="372" type="curve" smooth="yes"/>
			<point x="516" y="176"/>
			<point x="436" y="72"/>
		</contour>
	</outline>
</glyph>
<glyph name="one" format="2">
	<unicode hex="0031"/>
	<advance width="368"/>
	<outline>
		<contour>
			<point x="204" y="0" type="line"/>
			<point x="272" y="0" type="line"/>
			<point x="288" y="16" type="line"/>
			<point x="288" y="728" type="line"/>
			<point x="272" y="744" type="line"/>
			<point x="220" y="744" type="line"/>
			<point x="204" y="728" type="line"/>
			<point x="188" y="644"/>
			<point x="112" y="608"/>
			<point x="48" y="608" type="curve"/>
			<point x="32" y="592" type="line"/>
			<point x="32" y="552" type="line"/>
			<point x="48" y="536" type="line"/>
			<point x="180" y="536" type="line"/>
			<point x="188" y="528" type="line"/>
			<point x="188" y="16" type="line"/>
		</contour>
	</outline>
</glyph>
<glyph name="two" format="2">
	<unicode hex="0032"/>
	<advance width="594"/>
	<outline>
		<contour>
			<point x="48" y="0" type="line"/>
			<point x="528" y="0" type="line"/>
			<point x="544" y="16" type="line"/>
			<point x="544" y="72" type="line"/>
			<point x="528" y="88" type="line"/>
			<point x="160" y="88" type="line"/>
			<point x="152" y="96" type="line"/>
			<point x="152" y="136"/>
			<point x="232" y="216"/>
			<point x="356" y="276" type="curve" smooth="yes"/>
			<point x="492" y="342"/>
			<point x="562" y="414"/>
			<point x="562" y="528" type="curve" smooth="yes"/>
			<point x="562" y="652"/>
			<point x="494" y="760"/>
			<point x="306" y="760" type="curve" smooth="yes"/>
			<point x="150" y="760"/>
			<point x="50" y="656"/>
			<point x="50" y="500" type="curve"/>
			<point x="66" y="484" type="line"/>
			<point x="134" y="484" type="line"/>
			<point x="150" y="500" type="line"/>
			<point x="150" y="596"/>
			<point x="210" y="668"/>
			<point x="306" y="668" type="curve" smooth="yes"/>
			<point x="402" y="668"/>
			<point x="462" y="608"/>
			<point x="462" y="528" type="curve" smooth="yes"/>
			<point x="462" y="452"/>
			<point x="394" y="390"/>
			<point x="280" y="336" type="curve" smooth="yes"/>
			<point x="116" y="258"/>
			<point x="32" y="146"/>
			<point x="32" y="32" type="curve" smooth="yes"/>
			<point x="32" y="16" type="line"/>
		</contour>
	</outline>
</glyph>
<glyph name="three" format="2">
	<unicode hex="0033"/>
	<advance width="628"/>
	<outline>
		<contour>
			<point x="322" y="-16" type="curve" smooth="yes"/>
			<point x="490" y="-16"/>
			<point x="596" y="74"/>
			<point x="596" y="216" type="curve" smooth="yes"/>
			<point x="596" y="294"/>
			<point x="546" y="370"/>
			<point x="458" y="392" type="curve"/>
			<point x="458" y="400" type="line"/>
			<point x="526" y="426"/>
			<point x="568" y="478"/>
			<point x="568" y="570" type="curve" smooth="yes"/>
			<point x="568" y="670"/>
			<point x="476" y="760"/>
			<point x="320" y="760" type="curve" smooth="yes"/>
			<point x="170" y="760"/>
			<point x="70" y="680"/>
			<point x="54" y="544" type="curve"/>
			<point x="54" y="528" type="line"/>
			<point x="70" y="512" type="line"/>
			<point x="138" y="512" type="line"/>
			<point x="154" y="528" type="line"/>
			<point x="162" y="616"/>
			<point x="214" y="670"/>
			<point x="320" y="670" type="curve" smooth="yes"/>
			<point x="414" y="670"/>
			<point x="468" y="616"/>
			<point x="468" y="554" type="curve" smooth="yes"/>
			<point x="468" y="472"/>
			<point x="434" y="438"/>
			<point x="328" y="438" type="curve" smooth="yes"/>
			<point x="272" y="438" type="line"/>
			<point x="256" y="422" type="line"/>
			<point x="256" y="366" type="line"/>
			<point x="272" y="350" type="line"/>
			<point x="328" y="350" type="line" smooth="yes"/>
			<point x="434" y="350"/>
			<point x="496" y="292"/>
			<point x="496" y="216" type="curve" smooth="yes"/>
			<point x="496" y="132"/>
			<point x="424" y="74"/>
			<point x="322" y="74" type="curve" smooth="yes"/>
			<point x="214" y="74"/>
			<point x="142" y="132"/>
			<point x="132" y="228" type="curve"/>
			<point x="116" y="244" type="line"/>
			<point x="48" y="244" type="line"/>
			<point x="32" y="228" type="line"/>
			<point x="32" y="212" type="line"/>
			<point x="48" y="70"/>
			<point x="162" y="-16"/>
		</contour>
	</outline>
</glyph>
<glyph name="five" format="2">
	<unicode hex="0035"/>
	<advance width="604"/>
	<outline>
		<contour>
			<point x="300" y="-16" type="curve" smooth="yes"/>
			<point x="454" y="-16"/>
			<point x="572" y="72"/>
			<point x="572" y="260" type="curve" smooth="yes"/>
			<point x="572" y="398"/>
			<point x="474" y="512"/>
			<point x="318" y="512" type="curve" smooth="yes"/>
			<point x="252" y="512"/>
			<point x="202" y="488"/>
			<point x="164" y="458" type="curve"/>
			<point x="156" y="458" type="line"/>
			<point x="198" y="648" type="line"/>
			<point x="206" y="656" type="line"/>
			<point x="512" y="656" type="line"/>
			<point x="528" y="672" type="line"/>
			<point x="528" y="728" type="line"/>
			<point x="512" y="744" type="line"/>
			<point x="140" y="744" type="line"/>
			<point x="124" y="728" type="line"/>
			<point x="52" y="376" type="line"/>
			<point x="52" y="360" type="line"/>
			<point x="68" y="344" type="line"/>
			<point x="140" y="344" type="line"/>
			<point x="168" y="394"/>
			<point x="218" y="422"/>
			<point x="302" y="422" type="curve" smooth="yes"/>
			<point x="402" y="422"/>
			<point x="472" y="358"/>
			<point x="472" y="260" type="curve" smooth="yes"/>
			<point x="472" y="164"/>
			<point x="426" y="72"/>
			<point x="300" y="72" type="curve" smooth="yes"/>
			<point x="210" y="72"/>
			<point x="148" y="120"/>
			<point x="132" y="196" type="curve"/>
			<point x="116" y="212" type="line"/>
			<point x="48" y="212" type="line"/>
			<point x="32" y="196" type="line"/>
			<point x="32" y="92"/>
			<point x="132" y="-16"/>
		</contour>
	</outline>
</glyph>
<glyph name="eight" format="2">
	<unicode hex="0038"/>
	<advance width="640"/>
	<outline>
		<contour>
			<point x="320" y="-16" type="curve" smooth="yes"/>
			<point x="508" y="-16"/>
			<point x="608" y="72"/>
			<point x="608" y="220" type="curve" smooth="yes"/>
			<point x="608" y="316"/>
			<point x="534" y="392"/>
			<point x="462" y="408" type="curve"/>
			<point x="462" y="416" type="line"/>
			<point x="500" y="430"/>
			<point x="572" y="472"/>
			<point x="572" y="564" type="curve" smooth="yes"/>
			<point x="572" y="668"/>
			<point x="494" y="758"/>
			<point x="320" y="760" type="curve" smooth="yes"/>
			<point x="148" y="762"/>
			<point x="68" y="668"/>
			<point x="68" y="564" type="curve" smooth="yes"/>
			<point x="68" y="472"/>
			<point x="138" y="430"/>
			<point x="178" y="416" type="curve"/>
			<point x="178" y="408" type="line"/>
			<point x="120" y="392"/>
			<point x="32" y="316"/>
			<point x="32" y="220" type="curve" smooth="yes"/>
			<point x="32" y="72"/>
			<point x="132" y="-16"/>
		</contour>
		<contour>
			<point x="320" y="456" type="curve" smooth="yes"/>
			<point x="224" y="458"/>
			<point x="168" y="500"/>
			<point x="168" y="564" type="curve" smooth="yes"/>
			<point x="168" y="628"/>
			<point x="224" y="672"/>
			<point x="320" y="672" type="curve" smooth="yes"/>
			<point x="416" y="672"/>
			<point x="472" y="628"/>
			<point x="472" y="564" type="curve" smooth="yes"/>
			<point x="472" y="500"/>
			<point x="416" y="454"/>
		</contour>
		<contour>
			<point x="320" y="72" type="curve" smooth="yes"/>
			<point x="212" y="72"/>
			<point x="132" y="124"/>
			<point x="132" y="220" type="curve" smooth="yes"/>
			<point x="132" y="316"/>
			<point x="212" y="368"/>
			<point x="320" y="368" type="curve" smooth="yes"/>
			<point x="428" y="368"/>
			<point x="508" y="316"/>
			<point x="508" y="220" type="curve" smooth="yes"/>
			<point x="508" y="124"/>
			<point x="428" y="72"/>
		</contour>
	</outline>
</glyph>
<glyph name="A" format="2">
  <advance width="700"/>
  <unicode hex="0041"/>
  <outline>
    <contour>
      <point x="40" y="0" type="line"/>
      <point x="96" y="0" type="line"/>
      <point x="112" y="16" type="line"/>
      <point x="188" y="224" type="line"/>
      <point x="196" y="232" type="line"/>
      <point x="500" y="232" type="line"/>
      <point x="508" y="224" type="line"/>
      <point x="584" y="16" type="line"/>
      <point x="600" y="0" type="line"/>
      <point x="660" y="0" type="line"/>
      <point x="676" y="16" type="line"/>
      <point x="676" y="64" type="line"/>
      <point x="416" y="752" type="line"/>
      <point x="400" y="768" type="line"/>
      <point x="300" y="768" type="line"/>
      <point x="284" y="752" type="line"/>
      <point x="24" y="64" type="line"/>
      <point x="24" y="16" type="line"/>
    </contour>
    <contour>
      <point x="232" y="320" type="line"/>
      <point x="224" y="328" type="line"/>
      <point x="344" y="672" type="line"/>
      <point x="352" y="672" type="line"/>
      <point x="472" y="328" type="line"/>
      <point x="464" y="320" type="line"/>
    </contour>
  </outline>
</glyph>
<glyph name="D" format="2">
	<unicode hex="0044"/>
	<advance width="756"/>
	<outline>
		<contour>
			<point x="104" y="0" type="line"/>
			<point x="340" y="0" type="line" smooth="yes"/>
			<point x="580" y="0"/>
			<point x="708" y="128"/>
			<point x="708" y="384" type="curve" smooth="yes"/>
			<point x="708" y="640"/>
			<point x="580" y="768"/>
			<point x="340" y="768" type="curve" smooth="yes"/>
			<point x="96" y="768" type="line"/>
			<point x="80" y="752" type="line"/>
			<point x="80" y="16" type="line"/>
		</contour>
		<contour>
			<point x="200" y="96" type="line"/>
			<point x="184" y="104" type="line"/>
			<point x="184" y="664" type="line"/>
			<point x="192" y="672" type="line"/>
			<point x="324" y="672" type="line" smooth="yes"/>
			<point x="516" y="672"/>
			<point x="600" y="580"/>
			<point x="600" y="384" type="curve" smooth="yes"/>
			<point x="600" y="184"/>
			<point x="516" y="96"/>
			<point x="324" y="96" type="curve" smooth="yes"/>
		</contour>
	</outline>
</glyph>
<glyph name="E" format="2">
	<unicode hex="0045"/>
	<advance width="672"/>
	<outline>
		<contour>
			<point x="96" y="0" type="line"/>
			<point x="624" y="0" type="line"/>
			<point x="640" y="16" type="line"/>
			<point x="640" y="80" type="line"/>
			<point x="624" y="96" type="line"/>
			<point x="192" y="96" type="line"/>
			<point x="184" y="104" type="line"/>
			<point x="184" y="342" type="line"/>
			<point x="192" y="350" type="line"/>
			<point x="576" y="350" type="line"/>
			<point x="592" y="366" type="line"/>
			<point x="592" y="422" type="line"/>
			<point x="576" y="438" type="line"/>
			<point x="192" y="438" type="line"/>
			<point x="184" y="446" type="line"/>
			<point x="184" y="668" type="line"/>
			<point x="192" y="676" type="line"/>
			<point x="608" y="676" type="line"/>
			<point x="624" y="692" type="line"/>
			<point x="624" y="752" type="line"/>
			<point x="608" y="768" type="line"/>
			<point x="96" y="768" type="line"/>
			<point x="80" y="752" type="line"/>
			<point x="80" y="16" type="line"/>
		</contour>
	</outline>
</glyph>
<glyph name="H" format="2">
	<unicode hex="0048"/>
	<advance width="768"/>
	<outline>
		<contour>
			<point x="96" y="0" type="line"/>
			<point x="168" y="0" type="line"/>
			<point x="184" y="16" type="line"/>
			<point x="184" y="352" type="line"/>
			<point x="192" y="360" type="line"/>
			<point x="576" y="360" type="line"/>
			<point x="584" y="352" type="line"/>
			<point x="584" y="16" type="line"/>
			<point x="600" y="0" type="line"/>
			<point x="672" y="0" type="line"/>
			<point x="688" y="16" type="line"/>
			<point x="688" y="752" type="line"/>
			<point x="672" y="768" type="line"/>
			<point x="600" y="768" type="line"/>
			<point x="584" y="752" type="line"/>
			<point x="584" y="464" type="line"/>
			<point x="576" y="456" type="line"/>
			<point x="192" y="456" type="line"/>
			<point x="184" y="464" type="line"/>
			<point x="184" y="752" type="line"/>
			<point x="168" y="768" type="line"/>
			<point x="96" y="768" type="line"/>
			<point x="80" y="752" type="line"/>
			<point x="80" y="16" type="line"/>
		</contour>
	</outline>
</glyph>
<glyph name="K" format="2">
  <advance width="676"/>
  <unicode hex="004B"/>
  <outline>
    <contour>
      <point x="96" y="0" type="line"/>
      <point x="168" y="0" type="line"/>
      <point x="184" y="16" type="line"/>
      <point x="184" y="272" type="line"/>
      <point x="292" y="380" type="line"/>
      <point x="300" y="380" type="line"/>
      <point x="578" y="0" type="line"/>
      <point x="644" y="0" type="line"/>
      <point x="660" y="16" type="line"/>
      <point x="660" y="64" type="line"/>
      <point x="374" y="456" type="line"/>
      <point x="374" y="464" type="line"/>
      <point x="616" y="704" type="line"/>
      <point x="616" y="752" type="line"/>
      <point x="600" y="768" type="line"/>
      <point x="548" y="768" type="line"/>
      <point x="192" y="412" type="line"/>
      <point x="184" y="412" type="line"/>
      <point x="184" y="752" type="line"/>
      <point x="168" y="768" type="line"/>
      <point x="96" y="768" type="line"/>
      <point x="80" y="752" type="line"/>
      <point x="80" y="16" type="line"/>
    </contour>
  </outline>
</glyph>
<glyph name="M" format="2">
  <advance width="912"/>
  <unicode hex="004D"/>
  <outline>
    <contour>
      <point x="96" y="0" type="line"/>
      <point x="160" y="0" type="line"/>
      <point x="176" y="16" type="line"/>
      <point x="176" y="442" type="line"/>
      <point x="172" y="610" type="line"/>
      <point x="180" y="610" type="line"/>
      <point x="416" y="16" type="line"/>
      <point x="432" y="0" type="line"/>
      <point x="480" y="0" type="line"/>
      <point x="496" y="16" type="line"/>
      <point x="732" y="610" type="line"/>
      <point x="740" y="610" type="line"/>
      <point x="736" y="442" type="line"/>
      <point x="736" y="16" type="line"/>
      <point x="752" y="0" type="line"/>
      <point x="816" y="0" type="line"/>
      <point x="832" y="16" type="line"/>
      <point x="832" y="752" type="line"/>
      <point x="816" y="768" type="line"/>
      <point x="712" y="768" type="line"/>
      <point x="696" y="752" type="line"/>
      <point x="460" y="146" type="line"/>
      <point x="452" y="146" type="line"/>
      <point x="216" y="752" type="line"/>
      <point x="200" y="768" type="line"/>
      <point x="96" y="768" type="line"/>
      <point x="80" y="752" type="line"/>
      <point x="80" y="16" type="line"/>
    </contour>
  </outline>
</glyph>
<glyph name="N" format="2">
	<unicode hex="004E"/>
	<advance width="774"/>
	<outline>
		<contour>
			<point x="96" y="0" type="line"/>
			<point x="168" y="0" type="line"/>
			<point x="184" y="16" type="line"/>
			<point x="184" y="600" type="line"/>
			<point x="192" y="600" type="line"/>
			<point x="574" y="16" type="line"/>
			<point x="590" y="0" type="line"/>
			<point x="678" y="0" type="line"/>
			<point x="694" y="16" type="line"/>
			<point x="694" y="752" type="line"/>
			<point x="678" y="768" type="line"/>
			<point x="606" y="768" type="line"/>
			<point x="590" y="752" type="line"/>
			<point x="590" y="168" type="line"/>
			<point x="582" y="168" type="line"/>
			<point x="200" y="752" type="line"/>
			<point x="184" y="768" type="line"/>
			<point x="96" y="768" type="line"/>
			<point x="80" y="752" type="line"/>
			<point x="80" y="16" type="line"/>
		</contour>
	</outline>
</glyph>
<glyph name="O" format="2">
	<unicode hex="004F"/>
	<advance width="848"/>
	<outline>
		<contour>
			<point x="424" y="-16" type="curve" smooth="yes"/>
			<point x="656" y="-16"/>
			<point x="800" y="152"/>
			<point x="800" y="384" type="curve" smooth="yes"/>
			<point x="800" y="616"/>
			<point x="656" y="784"/>
			<point x="424" y="784" type="curve" smooth="yes"/>
			<point x="192" y="784"/>
			<point x="48" y="616"/>
			<point x="48" y="384" type="curve" smooth="yes"/>
			<point x="48" y="152"/>
			<point x="192" y="-16"/>
		</contour>
		<contour>
			<point x="424" y="80" type="curve" smooth="yes"/>
			<point x="248" y="80"/>
			<point x="156" y="208"/>
			<point x="156" y="384" type="curve" smooth="yes"/>
			<point x="156" y="560"/>
			<point x="248" y="688"/>
			<point x="424" y="688" type="curve" smooth="yes"/>
			<point x="600" y="688"/>
			<point x="692" y="560"/>
			<point x="692" y="384" type="curve" smooth="yes"/>
			<point x="692" y="208"/>
			<point x="600" y="80"/>
		</contour>
	</outline>
</glyph>
<glyph name="P" format="2">
	<unicode hex="0050"/>
	<advance width="632"/>
	<outline>
		<contour>
			<point x="192" y="416" type="line"/>
			<point x="184" y="424" type="line"/>
			<point x="184" y="664" type="line"/>
			<point x="192" y="672" type="line"/>
			<point x="368" y="672" type="line" smooth="yes"/>
			<point x="440" y="672"/>
			<point x="496" y="616"/>
			<point x="496" y="544" type="curve" smooth="yes"/>
			<point x="496" y="472"/>
			<point x="440" y="416"/>
			<point x="368" y="416" type="curve" smooth="yes"/>
		</contour>
		<contour>
			<point x="96" y="0" type="line"/>
			<point x="168" y="0" type="line"/>
			<point x="184" y="16" type="line"/>
			<point x="184" y="320" type="line"/>
			<point x="192" y="328" type="line"/>
			<point x="376" y="328" type="line" smooth="yes"/>
			<point x="504" y="328"/>
			<point x="604" y="416"/>
			<point x="604" y="544" type="curve" smooth="yes"/>
			<point x="604" y="672"/>
			<point x="504" y="768"/>
			<point x="376" y="768" type="curve" smooth="yes"/>
			<point x="96" y="768" type="line"/>
			<point x="80" y="752" type="line"/>
			<point x="80" y="16" type="line"/>
		</contour>
	</outline>
</glyph>
<glyph name="Q" format="2">
	<unicode hex="0051"/>
	<advance width="848"/>
	<outline>
		<contour>
			<point x="424" y="-16" type="curve" smooth="yes"/>
			<point x="518" y="-16"/>
			<point x="594" y="12"/>
			<point x="656" y="56" type="curve"/>
			<point x="664" y="56" type="line"/>
			<point x="720" y="0" type="line"/>
			<point x="784" y="0" type="line"/>
			<point x="800" y="16" type="line"/>
			<point x="800" y="64" type="line"/>
			<point x="734" y="130" type="line"/>
			<point x="734" y="138" type="line"/>
			<point x="776" y="206"/>
			<point x="800" y="290"/>
			<point x="800" y="384" type="curve" smooth="yes"/>
			<point x="800" y="616"/>
			<point x="656" y="784"/>
			<point x="424" y="784" type="curve" smooth="yes"/>
			<point x="192" y="784"/>
			<point x="48" y="616"/>
			<point x="48" y="384" type="curve" smooth="yes"/>
			<point x="48" y="152"/>
			<point x="192" y="-16"/>
		</contour>
		<contour>
			<point x="424" y="80" type="curve" smooth="yes"/>
			<point x="248" y="80"/>
			<point x="156" y="208"/>
			<point x="156" y="384" type="curve" smooth="yes"/>
			<point x="156" y="560"/>
			<point x="248" y="688"/>
			<point x="424" y="688" type="curve" smooth="yes"/>
			<point x="600" y="688"/>
			<point x="692" y="560"/>
			<point x="692" y="384" type="curve" smooth="yes"/>
			<point x="692" y="318"/>
			<point x="682" y="266"/>
			<point x="656" y="216" type="curve"/>
			<point x="648" y="216" type="line"/>
			<point x="504" y="360" type="line"/>
			<point x="440" y="360" type="line"/>
			<point x="424" y="344" type="line"/>
			<point x="424" y="296" type="line"/>
			<point x="584" y="136" type="line"/>
			<point x="584" y="128" type="line"/>
			<point x="542" y="100"/>
			<point x="492" y="80"/>
		</contour>
	</outline>
</glyph>
<glyph name="T" format="2">
	<unicode hex="0054"/>
	<advance width="584"/>
	<outline>
		<contour>
			<point x="256" y="0" type="line"/>
			<point x="328" y="0" type="line"/>
			<point x="344" y="16" type="line"/>
			<point x="344" y="664" type="line"/>
			<point x="352" y="672" type="line"/>
			<point x="552" y="672" type="line"/>
			<point x="568" y="688" type="line"/>
			<point x="568" y="752" type="line"/>
			<point x="552" y="768" type="line"/>
			<point x="32" y="768" type="line"/>
			<point x="16" y="752" type="line"/>
			<point x="16" y="688" type="line"/>
			<point x="32" y="672" type="line"/>
			<point x="232" y="672" type="line"/>
			<point x="240" y="664" type="line"/>
			<point x="240" y="16" type="line"/>
		</contour>
	</outline>
</glyph>
<glyph name="V" format="2">
	<unicode hex="0056"/>
	<advance width="660"/>
	<outline>
		<contour>
			<point x="274" y="0" type="line"/>
			<point x="382" y="0" type="line"/>
			<point x="402" y="16" type="line"/>
			<point x="636" y="704" type="line"/>
			<point x="636" y="752" type="line"/>
			<point x="620" y="768" type="line"/>
			<point x="560" y="768" type="line"/>
			<point x="544" y="752" type="line"/>
			<point x="336" y="128" type="line"/>
			<point x="328" y="128" type="line"/>
			<point x="120" y="752" type="line"/>
			<point x="104" y="768" type="line"/>
			<point x="40" y="768" type="line"/>
			<point x="24" y="752" type="line"/>
			<point x="24" y="704" type="line"/>
			<point x="258" y="16" type="line"/>
		</contour>
	</outline>
</glyph>
<glyph name="W" format="2">
  <advance width="1000"/>
  <unicode hex="0057"/>
  <anchor x="500" y="0" name="bottom"/>
  <anchor x="500" y="768" name="top"/>
  <outline>
    <contour>
      <point x="214" y="0" type="line"/>
      <point x="326" y="0" type="line"/>
      <point x="342" y="16" type="line"/>
      <point x="496" y="640" type="line"/>
      <point x="504" y="640" type="line"/>
      <point x="658" y="16" type="line"/>
      <point x="674" y="0" type="line"/>
      <point x="782" y="0" type="line"/>
      <point x="802" y="16" type="line"/>
      <point x="976" y="704" type="line"/>
      <point x="976" y="752" type="line"/>
      <point x="960" y="768" type="line"/>
      <point x="896" y="768" type="line"/>
      <point x="880" y="752" type="line"/>
      <point x="730" y="128" type="line"/>
      <point x="722" y="128" type="line"/>
      <point x="572" y="752" type="line"/>
      <point x="556" y="768" type="line"/>
      <point x="444" y="768" type="line"/>
      <point x="428" y="752" type="line"/>
      <point x="278" y="128" type="line"/>
      <point x="270" y="128" type="line"/>
      <point x="120" y="752" type="line"/>
      <point x="104" y="768" type="line"/>
      <point x="40" y="768" type="line"/>
      <point x="24" y="752" type="line"/>
      <point x="24" y="704" type="line"/>
      <point x="198" y="16" type="line"/>
    </contour>
  </outline>
</glyph>
<glyph name="X" format="2">
	<unicode hex="0058"/>
	<advance width="608"/>
	<outline>
		<contour>
			<point x="40" y="0" type="line"/>
			<point x="100" y="0" type="line"/>
			<point x="300" y="302" type="line"/>
			<point x="308" y="302" type="line"/>
			<point x="500" y="0" type="line"/>
			<point x="568" y="0" type="line"/>
			<point x="584" y="16" type="line"/>
			<point x="584" y="64" type="line"/>
			<point x="374" y="394" type="line"/>
			<point x="374" y="402" type="line"/>
			<point x="576" y="704" type="line"/>
			<point x="576" y="752" type="line"/>
			<point x="560" y="768" type="line"/>
			<point x="502" y="768" type="line"/>
			<point x="316" y="476" type="line"/>
			<point x="308" y="476" type="line"/>
			<point x="124" y="768" type="line"/>
			<point x="60" y="768" type="line"/>
			<point x="44" y="752" type="line"/>
			<point x="44" y="704" type="line"/>
			<point x="242" y="394" type="line"/>
			<point x="242" y="386" type="line"/>
			<point x="24" y="64" type="line"/>
			<point x="24" y="16" type="line"/>
		</contour>
	</outline>
</glyph>
<glyph name="Y" format="2">
	<unicode hex="0059"/>
	<advance width="624"/>
	<outline>
		<contour>
			<point x="276" y="0" type="line"/>
			<point x="348" y="0" type="line"/>
			<point x="364" y="16" type="line"/>
			<point x="364" y="312" type="line"/>
			<point x="608" y="704" type="line"/>
			<point x="608" y="752" type="line"/>
			<point x="592" y="768" type="line"/>
			<point x="544" y="768" type="line"/>
			<point x="528" y="752" type="line"/>
			<point x="318" y="408" type="line"/>
			<point x="310" y="408" type="line"/>
			<point x="96" y="752" type="line"/>
			<point x="80" y="768" type="line"/>
			<point x="32" y="768" type="line"/>
			<point x="16" y="752" type="line"/>
			<point x="16" y="704" type="line"/>
			<point x="260" y="312" type="line"/>
			<point x="260" y="16" type="line"/>
		</contour>
	</outline>
	<anchor name="bottom" x="316" y="0"/>
	<anchor name="top" x="316" y="800"/>
	<anchor name="topleft" x="20" y="800"/>
</glyph>
<glyph name="Z" format="2">
	<unicode hex="005A"/>
	<advance width="604"/>
	<outline>
		<contour>
			<point x="32" y="0" type="line"/>
			<point x="572" y="0" type="line"/>
			<point x="588" y="16" type="line"/>
			<point x="588" y="84" type="line"/>
			<point x="572" y="100" type="line"/>
			<point x="156" y="100" type="line"/>
			<point x="156" y="116" type="line"/>
			<point x="552" y="644" type="line"/>
			<point x="568" y="680" type="line"/>
			<point x="568" y="752" type="line"/>
			<point x="552" y="768" type="line"/>
			<point x="44" y="768" type="line"/>
			<point x="28" y="752" type="line"/>
			<point x="28" y="684" type="line"/>
			<point x="44" y="668" type="line"/>
			<point x="428" y="668" type="line"/>
			<point x="428" y="652" type="line"/>
			<point x="28" y="128" type="line"/>
			<point x="16" y="104" type="line"/>
			<point x="16" y="16" type="line"/>
		</contour>
	</outline>
	<anchor name="bottom" x="340" y="0"/>
	<anchor name="center" x="340" y="392"/>
	<anchor name="top" x="360" y="768"/>
</glyph>
<glyph name="a" format="2">
	<unicode hex="0061"/>
	<advance width="592"/>
	<outline>
		<contour>
			<point x="224" y="-16" type="curve"/>
			<point x="304" y="-16"/>
			<point x="368" y="8"/>
			<point x="416" y="72" type="curve"/>
			<point x="424" y="72" type="line"/>
			<point x="424" y="32"/>
			<point x="456" y="0"/>
			<point x="496" y="0" type="curve"/>
			<point x="544" y="0" type="line"/>
			<point x="560" y="16" type="line"/>
			<point x="560" y="64" type="line"/>
			<point x="544" y="80" type="line"/>
			<point x="520" y="80"/>
			<point x="512" y="88"/>
			<point x="512" y="112" type="curve"/>
			<point x="512" y="376" type="line"/>
			<point x="512" y="528"/>
			<point x="440" y="592"/>
			<point x="288" y="592" type="curve"/>
			<point x="208" y="592"/>
			<point x="72" y="544"/>
			<point x="72" y="416" type="curve"/>
			<point x="88" y="400" type="line"/>
			<point x="144" y="400" type="line"/>
			<point x="160" y="416" type="line"/>
			<point x="168" y="480"/>
			<point x="224" y="512"/>
			<point x="288" y="512" type="curve"/>
			<point x="368" y="512"/>
			<point x="416" y="472"/>
			<point x="416" y="392" type="curve"/>
			<point x="416" y="360" type="line"/>
			<point x="408" y="352" type="line"/>
			<point x="312" y="352" type="line"/>
			<point x="152" y="352"/>
			<point x="32" y="304"/>
			<point x="32" y="160" type="curve"/>
			<point x="32" y="56"/>
			<point x="112" y="-16"/>
		</contour>
		<contour>
			<point x="240" y="64" type="curve"/>
			<point x="176" y="64"/>
			<point x="124" y="96"/>
			<point x="124" y="160" type="curve"/>
			<point x="124" y="240"/>
			<point x="184" y="280"/>
			<point x="344" y="280" type="curve"/>
			<point x="408" y="280" type="line"/>
			<point x="416" y="272" type="line"/>
			<point x="416" y="216" type="line"/>
			<point x="416" y="128"/>
			<point x="336" y="64"/>
		</contour>
	</outline>
	<anchor name="top" x="282" y="578"/>
</glyph>
<glyph name="c" format="2">
	<unicode hex="0063"/>
	<advance width="584"/>
	<outline>
		<contour>
			<point x="312" y="-16" type="curve" smooth="yes"/>
			<point x="472" y="-16"/>
			<point x="532" y="70"/>
			<point x="560" y="176" type="curve"/>
			<point x="560" y="192" type="line"/>
			<point x="544" y="208" type="line"/>
			<point x="476" y="208" type="line"/>
			<point x="460" y="192" type="line"/>
			<point x="448" y="144"/>
			<point x="404" y="72"/>
			<point x="312" y="72" type="curve" smooth="yes"/>
			<point x="188" y="72"/>
			<point x="136" y="164"/>
			<point x="136" y="288" type="curve" smooth="yes"/>
			<point x="136" y="412"/>
			<point x="188" y="504"/>
			<point x="312" y="504" type="curve" smooth="yes"/>
			<point x="400" y="504"/>
			<point x="446" y="442"/>
			<point x="460" y="392" type="curve"/>
			<point x="476" y="376" type="line"/>
			<point x="544" y="376" type="line"/>
			<point x="560" y="392" type="line"/>
			<point x="560" y="408" type="line"/>
			<point x="536" y="484"/>
			<point x="466" y="592"/>
			<point x="312" y="592" type="curve" smooth="yes"/>
			<point x="136" y="592"/>
			<point x="32" y="464"/>
			<point x="32" y="288" type="curve" smooth="yes"/>
			<point x="32" y="112"/>
			<point x="136" y="-16"/>
		</contour>
	</outline>
</glyph>
<glyph name="e" format="2">
	<unicode hex="0065"/>
	<advance width="608"/>
	<outline>
		<contour>
			<point x="148" y="338" type="line"/>
			<point x="140" y="346" type="line"/>
			<point x="140" y="418"/>
			<point x="192" y="504"/>
			<point x="312" y="504" type="curve" smooth="yes"/>
			<point x="432" y="504"/>
			<point x="480" y="418"/>
			<point x="480" y="346" type="curve"/>
			<point x="472" y="338" type="line"/>
		</contour>
		<contour>
			<point x="312" y="-16" type="curve" smooth="yes"/>
			<point x="476" y="-16"/>
			<point x="562" y="80"/>
			<point x="566" y="168" type="curve"/>
			<point x="550" y="184" type="line"/>
			<point x="488" y="184" type="line"/>
			<point x="480" y="176" type="line"/>
			<point x="460" y="114"/>
			<point x="408" y="72"/>
			<point x="312" y="72" type="curve" smooth="yes"/>
			<point x="212" y="72"/>
			<point x="148" y="160"/>
			<point x="140" y="248" type="curve"/>
			<point x="148" y="256" type="line"/>
			<point x="560" y="256" type="line"/>
			<point x="576" y="272" type="line"/>
			<point x="576" y="304" type="line" smooth="yes"/>
			<point x="576" y="496"/>
			<point x="458" y="592"/>
			<point x="312" y="592" type="curve" smooth="yes"/>
			<point x="136" y="592"/>
			<point x="32" y="464"/>
			<point x="32" y="288" type="curve" smooth="yes"/>
			<point x="32" y="112"/>
			<point x="144" y="-16"/>
		</contour>
	</outline>
</glyph>
<glyph name="h" format="2">
  <advance width="592"/>
  <unicode hex="0068"/>
  <outline>
    <contour>
      <point x="80" y="0" type="line"/>
      <point x="144" y="0" type="line"/>
      <point x="160" y="16" type="line"/>
      <point x="160" y="352" type="line" smooth="yes"/>
      <point x="160" y="454"/>
      <point x="200" y="512"/>
      <point x="296" y="512" type="curve" smooth="yes"/>
      <point x="392" y="512"/>
      <point x="432" y="454"/>
      <point x="432" y="352" type="curve" smooth="yes"/>
      <point x="432" y="16" type="line"/>
      <point x="448" y="0" type="line"/>
      <point x="512" y="0" type="line"/>
      <point x="528" y="16" type="line"/>
      <point x="528" y="384" type="line" smooth="yes"/>
      <point x="528" y="512"/>
      <point x="456" y="592"/>
      <point x="328" y="592" type="curve" smooth="yes"/>
      <point x="264" y="592"/>
      <point x="200" y="560"/>
      <point x="168" y="512" type="curve"/>
      <point x="160" y="512" type="line"/>
      <point x="160" y="752" type="line"/>
      <point x="144" y="768" type="line"/>
      <point x="80" y="768" type="line"/>
      <point x="64" y="752" type="line"/>
      <point x="64" y="16" type="line"/>
    </contour>
  </outline>
</glyph>
<glyph name="j" format="2">
	<unicode hex="006A"/>
	<advance width="244"/>
	<outline>
		<contour>
			<point x="-16" y="-200" type="line"/>
			<point x="28" y="-200" type="line" smooth="yes"/>
			<point x="108" y="-200"/>
			<point x="172" y="-156"/>
			<point x="172" y="-52" type="curve" smooth="yes"/>
			<point x="172" y="560" type="line"/>
			<point x="156" y="576" type="line"/>
			<point x="92" y="576" type="line"/>
			<point x="76" y="560" type="line"/>
			<point x="76" y="-52" type="line" smooth="yes"/>
			<point x="76" y="-88"/>
			<point x="64" y="-100"/>
			<point x="36" y="-100" type="curve" smooth="yes"/>
			<point x="-16" y="-100" type="line"/>
			<point x="-32" y="-116" type="line"/>
			<point x="-32" y="-184" type="line"/>
		</contour>
		<contour>
			<point x="92" y="656" type="line"/>
			<point x="164" y="656" type="line"/>
			<point x="180" y="672" type="line"/>
			<point x="180" y="752" type="line"/>
			<point x="164" y="768" type="line"/>
			<point x="92" y="768" type="line"/>
			<point x="76" y="752" type="line"/>
			<point x="76" y="672" type="line"/>
		</contour>
	</outline>
</glyph>
<glyph name="k" format="2">
	<unicode hex="006B"/>
	<advance width="540"/>
	<outline>
		<contour>
			<point x="80" y="0" type="line"/>
			<point x="144" y="0" type="line"/>
			<point x="160" y="16" type="line"/>
			<point x="160" y="148" type="line"/>
			<point x="266" y="262" type="line"/>
			<point x="274" y="262" type="line"/>
			<point x="462" y="0" type="line"/>
			<point x="508" y="0" type="line"/>
			<point x="524" y="16" type="line"/>
			<point x="524" y="70" type="line"/>
			<point x="338" y="328" type="line"/>
			<point x="338" y="336" type="line"/>
			<point x="524" y="536" type="line"/>
			<point x="524" y="560" type="line"/>
			<point x="508" y="576" type="line"/>
			<point x="444" y="576" type="line"/>
			<point x="168" y="280" type="line"/>
			<point x="160" y="280" type="line"/>
			<point x="160" y="752" type="line"/>
			<point x="144" y="768" type="line"/>
			<point x="80" y="768" type="line"/>
			<point x="64" y="752" type="line"/>
			<point x="64" y="16" type="line"/>
		</contour>
	</outline>
	<anchor name="bottom" x="244" y="0"/>
	<anchor name="top" x="244" y="800"/>
</glyph>
<glyph name="o" format="2">
	<unicode hex="006F"/>
	<advance width="624"/>
	<outline>
		<contour>
			<point x="312" y="-16" type="curve" smooth="yes"/>
			<point x="488" y="-16"/>
			<point x="590" y="120"/>
			<point x="592" y="288" type="curve" smooth="yes"/>
			<point x="594" y="456"/>
			<point x="488" y="592"/>
			<point x="312" y="592" type="curve" smooth="yes"/>
			<point x="136" y="592"/>
			<point x="32" y="456"/>
			<point x="32" y="288" type="curve" smooth="yes"/>
			<point x="32" y="120"/>
			<point x="136" y="-16"/>
		</contour>
		<contour>
			<point x="312" y="72" type="curve" smooth="yes"/>
			<point x="192" y="72"/>
			<point x="128" y="160"/>
			<point x="128" y="288" type="curve" smooth="yes"/>
			<point x="128" y="416"/>
			<point x="192" y="502"/>
			<point x="312" y="504" type="curve" smooth="yes"/>
			<point x="432" y="506"/>
			<point x="496" y="416"/>
			<point x="496" y="288" type="curve" smooth="yes"/>
			<point x="496" y="160"/>
			<point x="432" y="72"/>
		</contour>
	</outline>
</glyph>
<glyph name="p" format="2">
	<unicode hex="0070"/>
	<advance width="618"/>
	<outline>
		<contour>
			<point x="80" y="-200" type="line"/>
			<point x="144" y="-200" type="line"/>
			<point x="160" y="-184" type="line"/>
			<point x="160" y="64" type="line"/>
			<point x="168" y="64" type="line"/>
			<point x="200" y="20"/>
			<point x="264" y="-16"/>
			<point x="352" y="-16" type="curve" smooth="yes"/>
			<point x="512" y="-16"/>
			<point x="586" y="124"/>
			<point x="586" y="288" type="curve" smooth="yes"/>
			<point x="586" y="452"/>
			<point x="512" y="592"/>
			<point x="352" y="592" type="curve" smooth="yes"/>
			<point x="276" y="592"/>
			<point x="200" y="556"/>
			<point x="168" y="512" type="curve"/>
			<point x="160" y="512" type="line"/>
			<point x="152" y="560" type="line"/>
			<point x="136" y="576" type="line"/>
			<point x="80" y="576" type="line"/>
			<point x="64" y="560" type="line"/>
			<point x="64" y="-184" type="line"/>
		</contour>
		<contour>
			<point x="320" y="80" type="curve" smooth="yes"/>
			<point x="232" y="80"/>
			<point x="160" y="152"/>
			<point x="160" y="288" type="curve" smooth="yes"/>
			<point x="160" y="424"/>
			<point x="232" y="496"/>
			<point x="320" y="496" type="curve" smooth="yes"/>
			<point x="420" y="496"/>
			<point x="480" y="424"/>
			<point x="480" y="288" type="curve" smooth="yes"/>
			<point x="480" y="152"/>
			<point x="420" y="80"/>
		</contour>
	</outline>
</glyph>
<glyph name="s" format="2">
	<unicode hex="0073"/>
	<advance width="536"/>
	<outline>
		<contour>
			<point x="264" y="-16" type="curve" smooth="yes"/>
			<point x="420" y="-16"/>
			<point x="504" y="52"/>
			<point x="504" y="160" type="curve" smooth="yes"/>
			<point x="504" y="252"/>
			<point x="434" y="296"/>
			<point x="318" y="326" type="curve" smooth="yes"/>
			<point x="286" y="334" type="line" smooth="yes"/>
			<point x="190" y="358"/>
			<point x="128" y="374"/>
			<point x="128" y="424" type="curve" smooth="yes"/>
			<point x="128" y="472"/>
			<point x="168" y="512"/>
			<point x="248" y="512" type="curve" smooth="yes"/>
			<point x="332" y="512"/>
			<point x="392" y="472"/>
			<point x="392" y="420" type="curve"/>
			<point x="408" y="404" type="line"/>
			<point x="464" y="404" type="line"/>
			<point x="480" y="420" type="line"/>
			<point x="478" y="442" type="line"/>
			<point x="466" y="546"/>
			<point x="372" y="592"/>
			<point x="248" y="592" type="curve" smooth="yes"/>
			<point x="92" y="592"/>
			<point x="32" y="504"/>
			<point x="32" y="424" type="curve" smooth="yes"/>
			<point x="32" y="328"/>
			<point x="112" y="290"/>
			<point x="230" y="260" type="curve" smooth="yes"/>
			<point x="262" y="252" type="line" smooth="yes"/>
			<point x="360" y="228"/>
			<point x="408" y="208"/>
			<point x="408" y="160" type="curve" smooth="yes"/>
			<point x="408" y="116"/>
			<point x="360" y="64"/>
			<point x="264" y="64" type="curve" smooth="yes"/>
			<point x="200" y="64"/>
			<point x="120" y="92"/>
			<point x="120" y="172" type="curve"/>
			<point x="104" y="188" type="line"/>
			<point x="48" y="188" type="line"/>
			<point x="32" y="172" type="line"/>
			<point x="32" y="152" type="line"/>
			<point x="40" y="38"/>
			<point x="124" y="-16"/>
		</contour>
	</outline>
</glyph>
<glyph name="t" format="2">
	<unicode hex="0074"/>
	<advance width="352"/>
	<outline>
		<contour>
			<point x="224" y="0" type="curve" smooth="yes"/>
			<point x="320" y="0" type="line"/>
			<point x="336" y="16" type="line"/>
			<point x="336" y="64" type="line"/>
			<point x="320" y="80" type="line"/>
			<point x="240" y="80" type="line" smooth="yes"/>
			<point x="208" y="80"/>
			<point x="192" y="96"/>
			<point x="192" y="128" type="curve" smooth="yes"/>
			<point x="192" y="488" type="line"/>
			<point x="200" y="496" type="line"/>
			<point x="320" y="496" type="line"/>
			<point x="336" y="512" type="line"/>
			<point x="336" y="560" type="line"/>
			<point x="320" y="576" type="line"/>
			<point x="200" y="576" type="line"/>
			<point x="192" y="584" type="line"/>
			<point x="192" y="720" type="line"/>
			<point x="176" y="736" type="line"/>
			<point x="112" y="736" type="line"/>
			<point x="96" y="720" type="line"/>
			<point x="96" y="584" type="line"/>
			<point x="88" y="576" type="line"/>
			<point x="32" y="576" type="line"/>
			<point x="16" y="560" type="line"/>
			<point x="16" y="512" type="line"/>
			<point x="32" y="496" type="line"/>
			<point x="88" y="496" type="line"/>
			<point x="96" y="488" type="line"/>
			<point x="96" y="128" type="line" smooth="yes"/>
			<point x="96" y="32"/>
			<point x="128" y="0"/>
		</contour>
	</outline>
</glyph>
<glyph name="u" format="2">
	<unicode hex="0075"/>
	<advance width="592"/>
	<outline>
		<contour>
			<point x="512" y="576" type="line"/>
			<point x="448" y="576" type="line"/>
			<point x="432" y="560" type="line"/>
			<point x="432" y="224" type="line" smooth="yes"/>
			<point x="432" y="122"/>
			<point x="392" y="64"/>
			<point x="296" y="64" type="curve" smooth="yes"/>
			<point x="200" y="64"/>
			<point x="160" y="122"/>
			<point x="160" y="224" type="curve" smooth="yes"/>
			<point x="160" y="560" type="line"/>
			<point x="144" y="576" type="line"/>
			<point x="80" y="576" type="line"/>
			<point x="64" y="560" type="line"/>
			<point x="64" y="192" type="line" smooth="yes"/>
			<point x="64" y="64"/>
			<point x="136" y="-16"/>
			<point x="264" y="-16" type="curve" smooth="yes"/>
			<point x="328" y="-16"/>
			<point x="392" y="16"/>
			<point x="424" y="64" type="curve"/>
			<point x="432" y="64" type="line"/>
			<point x="440" y="16" type="line"/>
			<point x="456" y="0" type="line"/>
			<point x="512" y="0" type="line"/>
			<point x="528" y="16" type="line"/>
			<point x="528" y="560" type="line"/>
		</contour>
	</outline>
</glyph>
<glyph name="v" format="2">
  <advance width="544"/>
  <unicode hex="0076"/>
  <outline>
    <contour>
      <point x="222" y="0" type="line"/>
      <point x="322" y="0" type="line"/>
      <point x="338" y="16" type="line"/>
      <point x="520" y="512" type="line"/>
      <point x="520" y="560" type="line"/>
      <point x="504" y="576" type="line"/>
      <point x="454" y="576" type="line"/>
      <point x="438" y="560" type="line"/>
      <point x="276" y="104" type="line"/>
      <point x="268" y="104" type="line"/>
      <point x="106" y="560" type="line"/>
      <point x="90" y="576" type="line"/>
      <point x="40" y="576" type="line"/>
      <point x="24" y="560" type="line"/>
      <point x="24" y="512" type="line"/>
      <point x="206" y="16" type="line"/>
    </contour>
  </outline>
</glyph>
<glyph name="x" format="2">
	<unicode hex="0078"/>
	<advance width="514"/>
	<outline>
		<contour>
			<point x="48" y="0" type="line"/>
			<point x="92" y="0" type="line"/>
			<point x="108" y="16" type="line"/>
			<point x="252" y="224" type="line"/>
			<point x="264" y="224" type="line"/>
			<point x="406" y="16" type="line"/>
			<point x="422" y="0" type="line"/>
			<point x="466" y="0" type="line"/>
			<point x="482" y="16" type="line"/>
			<point x="482" y="64" type="line"/>
			<point x="328" y="286" type="line"/>
			<point x="328" y="302" type="line"/>
			<point x="472" y="512" type="line"/>
			<point x="472" y="560" type="line"/>
			<point x="456" y="576" type="line"/>
			<point x="412" y="576" type="line"/>
			<point x="396" y="560" type="line"/>
			<point x="264" y="366" type="line"/>
			<point x="252" y="366" type="line"/>
			<point x="118" y="560" type="line"/>
			<point x="102" y="576" type="line"/>
			<point x="58" y="576" type="line"/>
			<point x="42" y="560" type="line"/>
			<point x="42" y="512" type="line"/>
			<point x="188" y="302" type="line"/>
			<point x="188" y="286" type="line"/>
			<point x="32" y="64" type="line"/>
			<point x="32" y="16" type="line"/>
		</contour>
	</outline>
</glyph>
<glyph name="y" format="2">
	<unicode hex="0079"/>
	<advance width="566"/>
	<outline>
		<contour>
			<point x="48" y="-200" type="line"/>
			<point x="102" y="-200" type="line" smooth="yes"/>
			<point x="226" y="-200"/>
			<point x="264" y="-166"/>
			<point x="302" y="-72" type="curve" smooth="yes"/>
			<point x="534" y="512" type="line"/>
			<point x="534" y="560" type="line"/>
			<point x="518" y="576" type="line"/>
			<point x="462" y="576" type="line"/>
			<point x="446" y="560" type="line"/>
			<point x="292" y="150" type="line"/>
			<point x="284" y="150" type="line"/>
			<point x="138" y="560" type="line"/>
			<point x="122" y="576" type="line"/>
			<point x="64" y="576" type="line"/>
			<point x="48" y="560" type="line"/>
			<point x="48" y="512" type="line"/>
			<point x="234" y="16" type="line"/>
			<point x="234" y="0" type="line"/>
			<point x="218" y="-40" type="line" smooth="yes"/>
			<point x="198" y="-90"/>
			<point x="172" y="-112"/>
			<point x="102" y="-112" type="curve" smooth="yes"/>
			<point x="48" y="-112" type="line"/>
			<point x="32" y="-128" type="line"/>
			<point x="32" y="-184" type="line"/>
		</contour>
	</outline>
	<anchor name="bottom" x="294" y="0"/>
	<anchor name="top" x="290" y="576"/>
</glyph>
<glyph name="acute" format="2">
	<unicode hex="00B4"/>
	<advance width="300"/>
	<outline>
		<contour>
			<point x="96" y="638" type="line"/>
			<point x="140" y="638" type="line"/>
			<point x="156" y="654" type="line"/>
			<point x="248" y="800" type="line"/>
			<point x="248" y="816" type="line"/>
			<point x="232" y="832" type="line"/>
			<point x="148" y="832" type="line"/>
			<point x="132" y="816" type="line"/>
			<point x="80" y="670" type="line"/>
			<point x="80" y="654" type="line"/>
		</contour>
	</outline>
</glyph>
<glyph name="alef-ar" format="2">
	<unicode hex="0627"/>
	<advance width="224"/>
	<outline>
		<contour>
			<point x="80" y="0" type="line"/>
			<point x="144" y="0" type="line"/>
			<point x="160" y="16" type="line"/>
			<point x="160" y="752" type="line"/>
			<point x="144" y="768" type="line"/>
			<point x="80" y="768" type="line"/>
			<point x="64" y="752" type="line"/>
			<point x="64" y="16" type="line"/>
		</contour>
	</outline>
	<anchor name="top" x="112" y="768"/>
	<anchor name="bottom" x="112" y="0"/>
</glyph>
<glyph name="dal-ar" format="2">
	<unicode hex="062F"/>
	<advance width="476"/>
	<outline>
		<contour>
			<point x="268" y="0" type="curve" smooth="yes"/>
			<point x="208" y="0" type="line" smooth="yes"/>
			<point x="80" y="0"/>
			<point x="32" y="52"/>
			<point x="32" y="180" type="curve" smooth="yes"/>
			<point x="32" y="252" type="line"/>
			<point x="48" y="268" type="line"/>
			<point x="112" y="268" type="line"/>
			<point x="128" y="252" type="line"/>
			<point x="128" y="188" type="line" smooth="yes"/>
			<point x="128" y="124"/>
			<point x="144" y="108"/>
			<point x="208" y="108" type="curve" smooth="yes"/>
			<point x="268" y="108" type="line" smooth="yes"/>
			<point x="332" y="108"/>
			<point x="348" y="124"/>
			<point x="348" y="188" type="curve" smooth="yes"/>
			<point x="348" y="384" type="line"/>
			<point x="364" y="400" type="line"/>
			<point x="428" y="400" type="line"/>
			<point x="444" y="384" type="line"/>
			<point x="444" y="188" type="line" smooth="yes"/>
			<point x="444" y="52"/>
			<point x="408" y="0"/>
		</contour>
	</outline>
</glyph>
<glyph name="waw-ar" format="2">
	<unicode hex="0648"/>
	<advance width="570"/>
	<outline>
		<contour>
			<point x="306" y="300" type="curve" smooth="yes"/>
			<point x="250" y="300"/>
			<point x="210" y="260"/>
			<point x="210" y="204" type="curve" smooth="yes"/>
			<point x="210" y="148"/>
			<point x="250" y="108"/>
			<point x="306" y="108" type="curve" smooth="yes"/>
			<point x="434" y="108" type="line"/>
			<point x="442" y="116" type="line"/>
			<point x="442" y="124" type="line" smooth="yes"/>
			<point x="442" y="252"/>
			<point x="362" y="300"/>
		</contour>
		<contour>
			<point x="306" y="-256" type="curve" smooth="yes"/>
			<point x="0" y="-256" type="line" smooth="yes"/>
			<point x="-96" y="-256"/>
			<point x="-128" y="-212"/>
			<point x="-128" y="-116" type="curve" smooth="yes"/>
			<point x="-128" y="-84" type="line"/>
			<point x="-112" y="-68" type="line"/>
			<point x="-48" y="-68" type="line"/>
			<point x="-32" y="-84" type="line"/>
			<point x="-32" y="-116" type="line" smooth="yes"/>
			<point x="-32" y="-140"/>
			<point x="-24" y="-148"/>
			<point x="0" y="-148" type="curve" smooth="yes"/>
			<point x="306" y="-148" type="line" smooth="yes"/>
			<point x="378" y="-148"/>
			<point x="442" y="-96"/>
			<point x="442" y="-16" type="curve" smooth="yes"/>
			<point x="442" y="-8" type="line"/>
			<point x="434" y="0" type="line"/>
			<point x="306" y="0" type="line" smooth="yes"/>
			<point x="196" y="0"/>
			<point x="114" y="82"/>
			<point x="114" y="204" type="curve" smooth="yes"/>
			<point x="114" y="332"/>
			<point x="198" y="408"/>
			<point x="306" y="408" type="curve" smooth="yes"/>
			<point x="434" y="408"/>
			<point x="538" y="312"/>
			<point x="538" y="116" type="curve" smooth="yes"/>
			<point x="538" y="0" type="line" smooth="yes"/>
			<point x="538" y="-148"/>
			<point x="438" y="-256"/>
		</contour>
	</outline>
</glyph>
<glyph name="hamzaabove-ar" format="2">
	<unicode hex="0654"/>
	<advance width="224"/>
	<outline>
		<contour>
			<point x="16" y="832" type="line"/>
			<point x="208" y="832" type="line"/>
			<point x="224" y="848" type="line"/>
			<point x="224" y="880" type="line"/>
			<point x="208" y="896" type="line"/>
			<point x="144" y="896" type="line" smooth="yes"/>
			<point x="112" y="896"/>
			<point x="96" y="912"/>
			<point x="96" y="944" type="curve" smooth="yes"/>
			<point x="96" y="958"/>
			<point x="104" y="964"/>
			<point x="116" y="964" type="curve" smooth="yes"/>
			<point x="128" y="964"/>
			<point x="136" y="958"/>
			<point x="136" y="944" type="curve"/>
			<point x="144" y="936" type="line"/>
			<point x="192" y="936" type="line"/>
			<point x="208" y="952" type="line"/>
			<point x="208" y="1000"/>
			<point x="178" y="1024"/>
			<point x="114" y="1024" type="curve" smooth="yes"/>
			<point x="50" y="1024"/>
			<point x="24" y="984"/>
			<point x="24" y="950" type="curve" smooth="yes"/>
			<point x="24" y="928"/>
			<point x="34" y="912"/>
			<point x="50" y="904" type="curve"/>
			<point x="50" y="896" type="line"/>
			<point x="16" y="896" type="line"/>
			<point x="0" y="880" type="line"/>
			<point x="0" y="848" type="line"/>
		</contour>
	</outline>
	<anchor name="_top" x="112" y="768"/>
</glyph>
<glyph name="hamzabelow-ar" format="2">
	<unicode hex="0655"/>
	<advance width="224"/>
	<outline>
		<contour>
			<point x="16" y="-256" type="line"/>
			<point x="208" y="-256" type="line"/>
			<point x="224" y="-240" type="line"/>
			<point x="224" y="-208" type="line"/>
			<point x="208" y="-192" type="line"/>
			<point x="142" y="-192" type="line" smooth="yes"/>
			<point x="114" y="-192"/>
			<point x="94" y="-176"/>
			<point x="94" y="-148" type="curve" smooth="yes"/>
			<point x="94" y="-134"/>
			<point x="102" y="-128"/>
			<point x="114" y="-128" type="curve" smooth="yes"/>
			<point x="126" y="-128"/>
			<point x="134" y="-134"/>
			<point x="134" y="-148" type="curve"/>
			<point x="142" y="-156" type="line"/>
			<point x="190" y="-156" type="line"/>
			<point x="206" y="-140" type="line"/>
			<point x="206" y="-92"/>
			<point x="176" y="-64"/>
			<point x="112" y="-64" type="curve" smooth="yes"/>
			<point x="48" y="-64"/>
			<point x="14" y="-106"/>
			<point x="14" y="-140" type="curve" smooth="yes"/>
			<point x="14" y="-162"/>
			<point x="24" y="-176"/>
			<point x="40" y="-184" type="curve"/>
			<point x="40" y="-192" type="line"/>
			<point x="16" y="-192" type="line"/>
			<point x="0" y="-208" type="line"/>
			<point x="0" y="-240" type="line"/>
		</contour>
	</outline>
	<anchor name="_bottom" x="112" y="0"/>
</glyph>
<glyph name="emdash" format="2">
	<unicode hex="2014"/>
	<advance width="1168"/>
	<outline>
		<contour>
			<point x="80" y="272" type="line"/>
			<point x="1088" y="274" type="line"/>
			<point x="1104" y="290" type="line"/>
			<point x="1104" y="346" type="line"/>
			<point x="1088" y="362" type="line"/>
			<point x="80" y="360" type="line"/>
			<point x="64" y="344" type="line"/>
			<point x="64" y="288" type="line"/>
		</contour>
	</outline>
</glyph>
<glyph name="minus" format="2">
	<unicode hex="2212"/>
	<advance width="536"/>
	<outline>
		<contour>
			<point x="48" y="256" type="line"/>
			<point x="488" y="256" type="line"/>
			<point x="504" y="272" type="line"/>
			<point x="504" y="328" type="line"/>
			<point x="488" y="344" type="line"/>
			<point x="48" y="344" type="line"/>
			<point x="32" y="328" type="line"/>
			<point x="32" y="272" type="line"/>
		</contour>
	</outline>
</glyph>
<glyph name="E000" format="2">
  <advance width="600"/>
  <unicode hex="E000"/>
  <outline>
    <contour>
      <point x="227" y="115" type="curve" smooth="yes"/>
      <point x="238" y="115"/>
      <point x="255" y="95"/>
      <point x="255" y="83" type="curve" smooth="yes"/>
      <point x="255" y="71"/>
      <point x="234" y="44"/>
      <point x="224" y="44" type="curve" smooth="yes"/>
      <point x="215" y="44"/>
      <point x="191" y="60"/>
      <point x="191" y="67" type="curve" smooth="yes"/>
      <point x="191" y="73"/>
      <point x="220" y="115"/>
    </contour>
    <contour>
      <point x="134" y="161" type="curve" smooth="yes"/>
      <point x="96" y="161"/>
      <point x="44" y="169"/>
      <point x="44" y="225" type="curve" smooth="yes"/>
      <point x="44" y="248"/>
      <point x="48" y="267"/>
      <point x="58" y="267" type="curve" smooth="yes"/>
      <point x="67" y="267"/>
      <point x="62" y="251"/>
      <point x="86" y="236" type="curve" smooth="yes"/>
      <point x="99" y="228"/>
      <point x="118" y="221"/>
      <point x="183" y="221" type="curve" smooth="yes"/>
      <point x="321" y="221"/>
      <point x="377" y="263"/>
      <point x="377" y="277" type="curve" smooth="yes"/>
      <point x="377" y="283"/>
      <point x="374" y="287"/>
      <point x="369" y="287" type="curve" smooth="yes"/>
      <point x="363" y="287"/>
      <point x="359" y="285"/>
      <point x="352" y="285" type="curve" smooth="yes"/>
      <point x="342" y="285"/>
      <point x="332" y="290"/>
      <point x="332" y="306" type="curve" smooth="yes"/>
      <point x="332" y="324"/>
      <point x="354" y="358"/>
      <point x="368" y="358" type="curve" smooth="yes"/>
      <point x="387" y="358"/>
      <point x="403" y="333"/>
      <point x="403" y="304" type="curve" smooth="yes"/>
      <point x="403" y="251"/>
      <point x="357" y="161"/>
    </contour>
    <contour>
      <point x="169" y="556" type="curve" smooth="yes"/>
      <point x="180" y="556"/>
      <point x="197" y="536"/>
      <point x="197" y="524" type="curve" smooth="yes"/>
      <point x="197" y="512"/>
      <point x="176" y="485"/>
      <point x="166" y="485" type="curve" smooth="yes"/>
      <point x="157" y="485"/>
      <point x="133" y="501"/>
      <point x="133" y="508" type="curve" smooth="yes"/>
      <point x="133" y="514"/>
      <point x="162" y="556"/>
    </contour>
    <contour>
      <point x="355" y="512" type="curve" smooth="yes"/>
      <point x="366" y="512"/>
      <point x="381" y="492"/>
      <point x="381" y="480" type="curve" smooth="yes"/>
      <point x="381" y="468"/>
      <point x="362" y="441"/>
      <point x="352" y="441" type="curve" smooth="yes"/>
      <point x="343" y="441"/>
      <point x="319" y="457"/>
      <point x="319" y="464" type="curve" smooth="yes"/>
      <point x="319" y="470"/>
      <point x="348" y="512"/>
    </contour>
    <contour>
      <point x="231" y="278" type="curve" smooth="yes"/>
      <point x="214" y="278"/>
      <point x="196" y="290"/>
      <point x="196" y="333" type="curve" smooth="yes"/>
      <point x="196" y="435"/>
      <point x="224" y="532"/>
      <point x="238" y="532" type="curve" smooth="yes"/>
      <point x="243" y="532"/>
      <point x="244" y="529"/>
      <point x="244" y="525" type="curve" smooth="yes"/>
      <point x="244" y="513"/>
      <point x="226" y="473"/>
      <point x="226" y="384" type="curve" smooth="yes"/>
      <point x="226" y="353"/>
      <point x="234" y="338"/>
      <point x="247" y="338" type="curve" smooth="yes"/>
      <point x="266" y="338"/>
      <point x="268" y="369"/>
      <point x="274" y="369" type="curve" smooth="yes"/>
      <point x="278" y="369"/>
      <point x="280" y="363"/>
      <point x="280" y="353" type="curve" smooth="yes"/>
      <point x="280" y="325"/>
      <point x="260" y="278"/>
    </contour>
    <contour>
      <point x="84" y="276" type="curve" smooth="yes"/>
      <point x="78" y="276"/>
      <point x="75" y="278"/>
      <point x="75" y="283" type="curve" smooth="yes"/>
      <point x="75" y="291"/>
      <point x="120" y="320"/>
      <point x="137" y="341" type="curve" smooth="yes"/>
      <point x="142" y="347"/>
      <point x="151" y="365"/>
      <point x="157" y="384" type="curve" smooth="yes"/>
      <point x="167" y="413"/>
      <point x="171" y="436"/>
      <point x="176" y="436" type="curve" smooth="yes"/>
      <point x="179" y="436"/>
      <point x="181" y="434"/>
      <point x="181" y="429" type="curve" smooth="yes"/>
      <point x="181" y="397"/>
      <point x="168" y="333"/>
      <point x="152" y="308" type="curve" smooth="yes"/>
      <point x="137" y="285"/>
      <point x="94" y="276"/>
    </contour>
    <contour>
      <point x="364" y="168" type="curve" smooth="yes"/>
      <point x="360" y="168"/>
      <point x="357" y="170"/>
      <point x="357" y="175" type="curve" smooth="yes"/>
      <point x="357" y="185"/>
      <point x="414" y="215"/>
      <point x="428" y="232" type="curve" smooth="yes"/>
      <point x="442" y="249"/>
      <point x="451" y="280"/>
      <point x="459" y="291" type="curve" smooth="yes"/>
      <point x="471" y="308"/>
      <point x="500" y="313"/>
      <point x="507" y="321" type="curve" smooth="yes"/>
      <point x="514" y="329"/>
      <point x="529" y="347"/>
      <point x="529" y="353" type="curve" smooth="yes"/>
      <point x="529" y="359"/>
      <point x="505" y="364"/>
      <point x="495" y="364" type="curve" smooth="yes"/>
      <point x="489" y="364"/>
      <point x="471" y="343"/>
      <point x="465" y="343" type="curve" smooth="yes"/>
      <point x="461" y="343"/>
      <point x="459" y="345"/>
      <point x="459" y="349" type="curve" smooth="yes"/>
      <point x="459" y="356"/>
      <point x="486" y="390"/>
      <point x="503" y="390" type="curve" smooth="yes"/>
      <point x="520" y="390"/>
      <point x="536" y="380"/>
      <point x="543" y="380" type="curve" smooth="yes"/>
      <point x="549" y="380"/>
      <point x="559" y="391"/>
      <point x="565" y="391" type="curve" smooth="yes"/>
      <point x="569" y="391"/>
      <point x="571" y="387"/>
      <point x="571" y="383" type="curve" smooth="yes"/>
      <point x="571" y="378"/>
      <point x="564" y="365"/>
      <point x="559" y="360" type="curve" smooth="yes"/>
      <point x="556" y="357"/>
      <point x="548" y="351"/>
      <point x="543" y="345" type="curve" smooth="yes"/>
      <point x="538" y="339"/>
      <point x="520" y="302"/>
      <point x="512" y="292" type="curve" smooth="yes"/>
      <point x="504" y="282"/>
      <point x="471" y="270"/>
      <point x="464" y="260" type="curve" smooth="yes"/>
      <point x="457" y="250"/>
      <point x="441" y="194"/>
      <point x="424" y="184" type="curve" smooth="yes"/>
      <point x="410" y="176"/>
      <point x="383" y="168"/>
    </contour>
  </outline>
</glyph>
<glyph name="E004" format="2">
	<unicode hex="E004"/>
	<advance width="840"/>
	<outline>
		<contour>
			<point x="88" y="24" type="curve" smooth="yes"/>
			<point x="54" y="24"/>
			<point x="24" y="54"/>
			<point x="24" y="88" type="curve" smooth="yes"/>
			<point x="24" y="124"/>
			<point x="54" y="152"/>
			<point x="88" y="152" type="curve" smooth="yes"/>
			<point x="124" y="152"/>
			<point x="152" y="124"/>
			<point x="152" y="88" type="curve" smooth="yes"/>
			<point x="152" y="54"/>
			<point x="124" y="24"/>
		</contour>
		<contour>
			<point x="88" y="-8" type="curve" smooth="yes"/>
			<point x="142" y="-8"/>
			<point x="184" y="36"/>
			<point x="184" y="88" type="curve" smooth="yes"/>
			<point x="184" y="142"/>
			<point x="142" y="184"/>
			<point x="88" y="184" type="curve" smooth="yes"/>
			<point x="36" y="184"/>
			<point x="-8" y="142"/>
			<point x="-8" y="88" type="curve" smooth="yes"/>
			<point x="-8" y="36"/>
			<point x="36" y="-8"/>
		</contour>
		<contour>
			<point x="88" y="320" type="curve" smooth="yes"/>
			<point x="54" y="320"/>
			<point x="24" y="350"/>
			<point x="24" y="384" type="curve" smooth="yes"/>
			<point x="24" y="420"/>
			<point x="54" y="448"/>
			<point x="88" y="448" type="curve" smooth="yes"/>
			<point x="124" y="448"/>
			<point x="152" y="420"/>
			<point x="152" y="384" type="curve" smooth="yes"/>
			<point x="152" y="350"/>
			<point x="124" y="320"/>
		</contour>
		<contour>
			<point x="88" y="288" type="curve" smooth="yes"/>
			<point x="142" y="288"/>
			<point x="184" y="332"/>
			<point x="184" y="384" type="curve" smooth="yes"/>
			<point x="184" y="438"/>
			<point x="142" y="480"/>
			<point x="88" y="480" type="curve" smooth="yes"/>
			<point x="36" y="480"/>
			<point x="-8" y="438"/>
			<point x="-8" y="384" type="curve" smooth="yes"/>
			<point x="-8" y="332"/>
			<point x="36" y="288"/>
		</contour>
		<contour>
			<point x="88" y="616" type="curve" smooth="yes"/>
			<point x="54" y="616"/>
			<point x="24" y="646"/>
			<point x="24" y="680" type="curve" smooth="yes"/>
			<point x="24" y="716"/>
			<point x="54" y="744"/>
			<point x="88" y="744" type="curve" smooth="yes"/>
			<point x="124" y="744"/>
			<point x="152" y="716"/>
			<point x="152" y="680" type="curve" smooth="yes"/>
			<point x="152" y="646"/>
			<point x="124" y="616"/>
		</contour>
		<contour>
			<point x="88" y="584" type="curve" smooth="yes"/>
			<point x="142" y="584"/>
			<point x="184" y="628"/>
			<point x="184" y="680" type="curve" smooth="yes"/>
			<point x="184" y="734"/>
			<point x="142" y="776"/>
			<point x="88" y="776" type="curve" smooth="yes"/>
			<point x="36" y="776"/>
			<point x="-8" y="734"/>
			<point x="-8" y="680" type="curve" smooth="yes"/>
			<point x="-8" y="628"/>
			<point x="36" y="584"/>
		</contour>
		<contour>
			<point x="384" y="24" type="curve" smooth="yes"/>
			<point x="350" y="24"/>
			<point x="320" y="54"/>
			<point x="320" y="88" type="curve" smooth="yes"/>
			<point x="320" y="124"/>
			<point x="350" y="152"/>
			<point x="384" y="152" type="curve" smooth="yes"/>
			<point x="420" y="152"/>
			<point x="448" y="124"/>
			<point x="448" y="88" type="curve" smooth="yes"/>
			<point x="448" y="54"/>
			<point x="420" y="24"/>
		</contour>
		<contour>
			<point x="384" y="-8" type="curve" smooth="yes"/>
			<point x="438" y="-8"/>
			<point x="480" y="36"/>
			<point x="480" y="88" type="curve" smooth="yes"/>
			<point x="480" y="142"/>
			<point x="438" y="184"/>
			<point x="384" y="184" type="curve" smooth="yes"/>
			<point x="332" y="184"/>
			<point x="288" y="142"/>
			<point x="288" y="88" type="curve" smooth="yes"/>
			<point x="288" y="36"/>
			<point x="332" y="-8"/>
		</contour>
		<contour>
			<point x="384" y="320" type="curve" smooth="yes"/>
			<point x="350" y="320"/>
			<point x="320" y="350"/>
			<point x="320" y="384" type="curve" smooth="yes"/>
			<point x="320" y="420"/>
			<point x="350" y="448"/>
			<point x="384" y="448" type="curve" smooth="yes"/>
			<point x="420" y="448"/>
			<point x="448" y="420"/>
			<point x="448" y="384" type="curve" smooth="yes"/>
			<point x="448" y="350"/>
			<point x="420" y="320"/>
		</contour>
		<contour>
			<point x="384" y="288" type="curve" smooth="yes"/>
			<point x="438" y="288"/>
			<point x="480" y="332"/>
			<point x="480" y="384" type="curve" smooth="yes"/>
			<point x="480" y="438"/>
			<point x="438" y="480"/>
			<point x="384" y="480" type="curve" smooth="yes"/>
			<point x="332" y="480"/>
			<point x="288" y="438"/>
			<point x="288" y="384" type="curve" smooth="yes"/>
			<point x="288" y="332"/>
			<point x="332" y="288"/>
		</contour>
		<contour>
			<point x="384" y="616" type="curve" smooth="yes"/>
			<point x="350" y="616"/>
			<point x="320" y="646"/>
			<point x="320" y="680" type="curve" smooth="yes"/>
			<point x="320" y="716"/>
			<point x="350" y="744"/>
			<point x="384" y="744" type="curve" smooth="yes"/>
			<point x="420" y="744"/>
			<point x="448" y="716"/>
			<point x="448" y="680" type="curve" smooth="yes"/>
			<point x="448" y="646"/>
			<point x="420" y="616"/>
		</contour>
		<contour>
			<point x="384" y="584" type="curve" smooth="yes"/>
			<point x="438" y="584"/>
			<point x="480" y="628"/>
			<point x="480" y="680" type="curve" smooth="yes"/>
			<point x="480" y="734"/>
			<point x="438" y="776"/>
			<point x="384" y="776" type="curve" smooth="yes"/>
			<point x="332" y="776"/>
			<point x="288" y="734"/>
			<point x="288" y="680" type="curve" smooth="yes"/>
			<point x="288" y="628"/>
			<point x="332" y="584"/>
		</contour>
		<contour>
			<point x="680" y="24" type="curve" smooth="yes"/>
			<point x="646" y="24"/>
			<point x="616" y="54"/>
			<point x="616" y="88" type="curve" smooth="yes"/>
			<point x="616" y="124"/>
			<point x="646" y="152"/>
			<point x="680" y="152" type="curve" smooth="yes"/>
			<point x="716" y="152"/>
			<point x="744" y="124"/>
			<point x="744" y="88" type="curve" smooth="yes"/>
			<point x="744" y="54"/>
			<point x="716" y="24"/>
		</contour>
		<contour>
			<point x="680" y="-8" type="curve" smooth="yes"/>
			<point x="734" y="-8"/>
			<point x="776" y="36"/>
			<point x="776" y="88" type="curve" smooth="yes"/>
			<point x="776" y="142"/>
			<point x="734" y="184"/>
			<point x="680" y="184" type="curve" smooth="yes"/>
			<point x="628" y="184"/>
			<point x="584" y="142"/>
			<point x="584" y="88" type="curve" smooth="yes"/>
			<point x="584" y="36"/>
			<point x="628" y="-8"/>
		</contour>
		<contour>
			<point x="680" y="320" type="curve" smooth="yes"/>
			<point x="646" y="320"/>
			<point x="616" y="350"/>
			<point x="616" y="384" type="curve" smooth="yes"/>
			<point x="616" y="420"/>
			<point x="646" y="448"/>
			<point x="680" y="448" type="curve" smooth="yes"/>
			<point x="716" y="448"/>
			<point x="744" y="420"/>
			<point x="744" y="384" type="curve" smooth="yes"/>
			<point x="744" y="350"/>
			<point x="716" y="320"/>
		</contour>
		<contour>
			<point x="680" y="288" type="curve" smooth="yes"/>
			<point x="734" y="288"/>
			<point x="776" y="332"/>
			<point x="776" y="384" type="curve" smooth="yes"/>
			<point x="776" y="438"/>
			<point x="734" y="480"/>
			<point x="680" y="480" type="curve" smooth="yes"/>
			<point x="628" y="480"/>
			<point x="584" y="438"/>
			<point x="584" y="384" type="curve" smooth="yes"/>
			<point x="584" y="332"/>
			<point x="628" y="288"/>
		</contour>
		<contour>
			<point x="680" y="616" type="curve" smooth="yes"/>
			<point x="646" y="616"/>
			<point x="616" y="646"/>
			<point x="616" y="680" type="curve" smooth="yes"/>
			<point x="616" y="716"/>
			<point x="646" y="744"/>
			<point x="680" y="744" type="curve" smooth="yes"/>
			<point x="716" y="744"/>
			<point x="744" y="716"/>
			<point x="744" y="680" type="curve" smooth="yes"/>
			<point x="744" y="646"/>
			<point x="716" y="616"/>
		</contour>
		<contour>
			<point x="680" y="584" type="curve" smooth="yes"/>
			<point x="734" y="584"/>
			<point x="776" y="628"/>
			<point x="776" y="680" type="curve" smooth="yes"/>
			<point x="776" y="734"/>
			<point x="734" y="776"/>
			<point x="680" y="776" type="curve" smooth="yes"/>
			<point x="628" y="776"/>
			<point x="584" y="734"/>
			<point x="584" y="680" type="curve" smooth="yes"/>
			<point x="584" y="628"/>
			<point x="628" y="584"/>
		</contour>
		<contour>
			<point x="68" y="176" type="line"/>
			<point x="108" y="176" type="line"/>
			<point x="108" y="304" type="line"/>
			<point x="68" y="304" type="line"/>
		</contour>
		<contour>
			<point x="68" y="464" type="line"/>
			<point x="108" y="464" type="line"/>
			<point x="108" y="592" type="line"/>
			<point x="68" y="592" type="line"/>
		</contour>
		<contour>
			<point x="364" y="176" type="line"/>
			<point x="404" y="176" type="line"/>
			<point x="404" y="304" type="line"/>
			<point x="364" y="304" type="line"/>
		</contour>
		<contour>
			<point x="364" y="464" type="line"/>
			<point x="404" y="464" type="line"/>
			<point x="404" y="592" type="line"/>
			<point x="364" y="592" type="line"/>
		</contour>
		<contour>
			<point x="660" y="176" type="line"/>
			<point x="700" y="176" type="line"/>
			<point x="700" y="304" type="line"/>
			<point x="660" y="304" type="line"/>
		</contour>
		<contour>
			<point x="660" y="464" type="line"/>
			<point x="700" y="464" type="line"/>
			<point x="700" y="592" type="line"/>
			<point x="660" y="592" type="line"/>
		</contour>
		<contour>
			<point x="464" y="660" type="line"/>
			<point x="592" y="660" type="line"/>
			<point x="592" y="700" type="line"/>
			<point x="464" y="700" type="line"/>
		</contour>
		<contour>
			<point x="176" y="660" type="line"/>
			<point x="304" y="660" type="line"/>
			<point x="304" y="700" type="line"/>
			<point x="176" y="700" type="line"/>
		</contour>
		<contour>
			<point x="464" y="364" type="line"/>
			<point x="592" y="364" type="line"/>
			<point x="592" y="404" type="line"/>
			<point x="464" y="404" type="line"/>
		</contour>
		<contour>
			<point x="176" y="364" type="line"/>
			<point x="304" y="364" type="line"/>
			<point x="304" y="404" type="line"/>
			<point x="176" y="404" type="line"/>
		</contour>
		<contour>
			<point x="464" y="68" type="line"/>
			<point x="592" y="68" type="line"/>
			<point x="592" y="108" type="line"/>
			<point x="464" y="108" type="line"/>
		</contour>
		<contour>
			<point x="176" y="68" type="line"/>
			<point x="304" y="68" type="line"/>
			<point x="304" y="108" type="line"/>
			<point x="176" y="108" type="line"/>
		</contour>
	</outline>
</glyph>
<glyph name="E005" format="2">
	<unicode hex="E005"/>
	<advance width="904"/>
	<outline>
		<contour>
			<point x="88" y="56" type="curve" smooth="yes"/>
			<point x="72" y="56"/>
			<point x="56" y="72"/>
			<point x="56" y="88" type="curve" smooth="yes"/>
			<point x="56" y="106"/>
			<point x="72" y="120"/>
			<point x="88" y="120" type="curve" smooth="yes"/>
			<point x="106" y="120"/>
			<point x="120" y="106"/>
			<point x="120" y="88" type="curve" smooth="yes"/>
			<point x="120" y="72"/>
			<point x="106" y="56"/>
		</contour>
		<contour>
			<point x="88" y="-8" type="curve" smooth="yes"/>
			<point x="142" y="-8"/>
			<point x="184" y="36"/>
			<point x="184" y="88" type="curve" smooth="yes"/>
			<point x="184" y="142"/>
			<point x="142" y="184"/>
			<point x="88" y="184" type="curve" smooth="yes"/>
			<point x="36" y="184"/>
			<point x="-8" y="142"/>
			<point x="-8" y="88" type="curve" smooth="yes"/>
			<point x="-8" y="36"/>
			<point x="36" y="-8"/>
		</contour>
		<contour>
			<point x="88" y="288" type="curve" smooth="yes"/>
			<point x="142" y="288"/>
			<point x="184" y="332"/>
			<point x="184" y="384" type="curve" smooth="yes"/>
			<point x="184" y="438"/>
			<point x="142" y="480"/>
			<point x="88" y="480" type="curve" smooth="yes"/>
			<point x="36" y="480"/>
			<point x="-8" y="438"/>
			<point x="-8" y="384" type="curve" smooth="yes"/>
			<point x="-8" y="332"/>
			<point x="36" y="288"/>
		</contour>
		<contour>
			<point x="88" y="584" type="curve" smooth="yes"/>
			<point x="142" y="584"/>
			<point x="184" y="628"/>
			<point x="184" y="680" type="curve" smooth="yes"/>
			<point x="184" y="734"/>
			<point x="142" y="776"/>
			<point x="88" y="776" type="curve" smooth="yes"/>
			<point x="36" y="776"/>
			<point x="-8" y="734"/>
			<point x="-8" y="680" type="curve" smooth="yes"/>
			<point x="-8" y="628"/>
			<point x="36" y="584"/>
		</contour>
		<contour>
			<point x="384" y="-8" type="curve" smooth="yes"/>
			<point x="438" y="-8"/>
			<point x="480" y="36"/>
			<point x="480" y="88" type="curve" smooth="yes"/>
			<point x="480" y="142"/>
			<point x="438" y="184"/>
			<point x="384" y="184" type="curve" smooth="yes"/>
			<point x="332" y="184"/>
			<point x="288" y="142"/>
			<point x="288" y="88" type="curve" smooth="yes"/>
			<point x="288" y="36"/>
			<point x="332" y="-8"/>
		</contour>
		<contour>
			<point x="384" y="288" type="curve" smooth="yes"/>
			<point x="438" y="288"/>
			<point x="480" y="332"/>
			<point x="480" y="384" type="curve" smooth="yes"/>
			<point x="480" y="438"/>
			<point x="438" y="480"/>
			<point x="384" y="480" type="curve" smooth="yes"/>
			<point x="332" y="480"/>
			<point x="288" y="438"/>
			<point x="288" y="384" type="curve" smooth="yes"/>
			<point x="288" y="332"/>
			<point x="332" y="288"/>
		</contour>
		<contour>
			<point x="384" y="584" type="curve" smooth="yes"/>
			<point x="438" y="584"/>
			<point x="480" y="628"/>
			<point x="480" y="680" type="curve" smooth="yes"/>
			<point x="480" y="734"/>
			<point x="438" y="776"/>
			<point x="384" y="776" type="curve" smooth="yes"/>
			<point x="332" y="776"/>
			<point x="288" y="734"/>
			<point x="288" y="680" type="curve" smooth="yes"/>
			<point x="288" y="628"/>
			<point x="332" y="584"/>
		</contour>
		<contour>
			<point x="680" y="-8" type="curve" smooth="yes"/>
			<point x="734" y="-8"/>
			<point x="776" y="36"/>
			<point x="776" y="88" type="curve" smooth="yes"/>
			<point x="776" y="142"/>
			<point x="734" y="184"/>
			<point x="680" y="184" type="curve" smooth="yes"/>
			<point x="628" y="184"/>
			<point x="584" y="142"/>
			<point x="584" y="88" type="curve" smooth="yes"/>
			<point x="584" y="36"/>
			<point x="628" y="-8"/>
		</contour>
		<contour>
			<point x="680" y="288" type="curve" smooth="yes"/>
			<point x="734" y="288"/>
			<point x="776" y="332"/>
			<point x="776" y="384" type="curve" smooth="yes"/>
			<point x="776" y="438"/>
			<point x="734" y="480"/>
			<point x="680" y="480" type="curve" smooth="yes"/>
			<point x="628" y="480"/>
			<point x="584" y="438"/>
			<point x="584" y="384" type="curve" smooth="yes"/>
			<point x="584" y="332"/>
			<point x="628" y="288"/>
		</contour>
		<contour>
			<point x="680" y="584" type="curve" smooth="yes"/>
			<point x="734" y="584"/>
			<point x="776" y="628"/>
			<point x="776" y="680" type="curve" smooth="yes"/>
			<point x="776" y="734"/>
			<point x="734" y="776"/>
			<point x="680" y="776" type="curve" smooth="yes"/>
			<point x="628" y="776"/>
			<point x="584" y="734"/>
			<point x="584" y="680" type="curve" smooth="yes"/>
			<point x="584" y="628"/>
			<point x="628" y="584"/>
		</contour>
		<contour>
			<point x="72" y="176" type="line"/>
			<point x="104" y="176" type="line"/>
			<point x="104" y="304" type="line"/>
			<point x="72" y="304" type="line"/>
		</contour>
		<contour>
			<point x="72" y="464" type="line"/>
			<point x="104" y="464" type="line"/>
			<point x="104" y="592" type="line"/>
			<point x="72" y="592" type="line"/>
		</contour>
		<contour>
			<point x="368" y="176" type="line"/>
			<point x="400" y="176" type="line"/>
			<point x="400" y="304" type="line"/>
			<point x="368" y="304" type="line"/>
		</contour>
		<contour>
			<point x="368" y="464" type="line"/>
			<point x="400" y="464" type="line"/>
			<point x="400" y="592" type="line"/>
			<point x="368" y="592" type="line"/>
		</contour>
		<contour>
			<point x="664" y="176" type="line"/>
			<point x="696" y="176" type="line"/>
			<point x="696" y="304" type="line"/>
			<point x="664" y="304" type="line"/>
		</contour>
		<contour>
			<point x="664" y="464" type="line"/>
			<point x="696" y="464" type="line"/>
			<point x="696" y="592" type="line"/>
			<point x="664" y="592" type="line"/>
		</contour>
		<contour>
			<point x="464" y="664" type="line"/>
			<point x="592" y="664" type="line"/>
			<point x="592" y="696" type="line"/>
			<point x="464" y="696" type="line"/>
		</contour>
		<contour>
			<point x="176" y="664" type="line"/>
			<point x="304" y="664" type="line"/>
			<point x="304" y="696" type="line"/>
			<point x="176" y="696" type="line"/>
		</contour>
		<contour>
			<point x="464" y="368" type="line"/>
			<point x="592" y="368" type="line"/>
			<point x="592" y="400" type="line"/>
			<point x="464" y="400" type="line"/>
		</contour>
		<contour>
			<point x="176" y="368" type="line"/>
			<point x="304" y="368" type="line"/>
			<point x="304" y="400" type="line"/>
			<point x="176" y="400" type="line"/>
		</contour>
		<contour>
			<point x="464" y="72" type="line"/>
			<point x="592" y="72" type="line"/>
			<point x="592" y="104" type="line"/>
			<point x="464" y="104" type="line"/>
		</contour>
		<contour>
			<point x="176" y="72" type="line"/>
			<point x="304" y="72" type="line"/>
			<point x="304" y="104" type="line"/>
			<point x="176" y="104" type="line"/>
		</contour>
		<contour>
			<point x="88" y="352" type="curve" smooth="yes"/>
			<point x="72" y="352"/>
			<point x="56" y="368"/>
			<point x="56" y="384" type="curve" smooth="yes"/>
			<point x="56" y="402"/>
			<point x="72" y="416"/>
			<point x="88" y="416" type="curve" smooth="yes"/>
			<point x="106" y="416"/>
			<point x="120" y="402"/>
			<point x="120" y="384" type="curve" smooth="yes"/>
			<point x="120" y="368"/>
			<point x="106" y="352"/>
		</contour>
		<contour>
			<point x="88" y="648" type="curve" smooth="yes"/>
			<point x="72" y="648"/>
			<point x="56" y="664"/>
			<point x="56" y="680" type="curve" smooth="yes"/>
			<point x="56" y="698"/>
			<point x="72" y="712"/>
			<point x="88" y="712" type="curve" smooth="yes"/>
			<point x="106" y="712"/>
			<point x="120" y="698"/>
			<point x="120" y="680" type="curve" smooth="yes"/>
			<point x="120" y="664"/>
			<point x="106" y="648"/>
		</contour>
		<contour>
			<point x="384" y="56" type="curve" smooth="yes"/>
			<point x="368" y="56"/>
			<point x="352" y="72"/>
			<point x="352" y="88" type="curve" smooth="yes"/>
			<point x="352" y="106"/>
			<point x="368" y="120"/>
			<point x="384" y="120" type="curve" smooth="yes"/>
			<point x="402" y="120"/>
			<point x="416" y="106"/>
			<point x="416" y="88" type="curve" smooth="yes"/>
			<point x="416" y="72"/>
			<point x="402" y="56"/>
		</contour>
		<contour>
			<point x="384" y="352" type="curve" smooth="yes"/>
			<point x="368" y="352"/>
			<point x="352" y="368"/>
			<point x="352" y="384" type="curve" smooth="yes"/>
			<point x="352" y="402"/>
			<point x="368" y="416"/>
			<point x="384" y="416" type="curve" smooth="yes"/>
			<point x="402" y="416"/>
			<point x="416" y="402"/>
			<point x="416" y="384" type="curve" smooth="yes"/>
			<point x="416" y="368"/>
			<point x="402" y="352"/>
		</contour>
		<contour>
			<point x="384" y="648" type="curve" smooth="yes"/>
			<point x="368" y="648"/>
			<point x="352" y="664"/>
			<point x="352" y="680" type="curve" smooth="yes"/>
			<point x="352" y="698"/>
			<point x="368" y="712"/>
			<point x="384" y="712" type="curve" smooth="yes"/>
			<point x="402" y="712"/>
			<point x="416" y="698"/>
			<point x="416" y="680" type="curve" smooth="yes"/>
			<point x="416" y="664"/>
			<point x="402" y="648"/>
		</contour>
		<contour>
			<point x="680" y="56" type="curve" smooth="yes"/>
			<point x="664" y="56"/>
			<point x="648" y="72"/>
			<point x="648" y="88" type="curve" smooth="yes"/>
			<point x="648" y="106"/>
			<point x="664" y="120"/>
			<point x="680" y="120" type="curve" smooth="yes"/>
			<point x="698" y="120"/>
			<point x="712" y="106"/>
			<point x="712" y="88" type="curve" smooth="yes"/>
			<point x="712" y="72"/>
			<point x="698" y="56"/>
		</contour>
		<contour>
			<point x="680" y="352" type="curve" smooth="yes"/>
			<point x="664" y="352"/>
			<point x="648" y="368"/>
			<point x="648" y="384" type="curve" smooth="yes"/>
			<point x="648" y="402"/>
			<point x="664" y="416"/>
			<point x="680" y="416" type="curve" smooth="yes"/>
			<point x="698" y="416"/>
			<point x="712" y="402"/>
			<point x="712" y="384" type="curve" smooth="yes"/>
			<point x="712" y="368"/>
			<point x="698" y="352"/>
		</contour>
		<contour>
			<point x="680" y="648" type="curve" smooth="yes"/>
			<point x="664" y="648"/>
			<point x="648" y="664"/>
			<point x="648" y="680" type="curve" smooth="yes"/>
			<point x="648" y="698"/>
			<point x="664" y="712"/>
			<point x="680" y="712" type="curve" smooth="yes"/>
			<point x="698" y="712"/>
			<point x="712" y="698"/>
			<point x="712" y="680" type="curve" smooth="yes"/>
			<point x="712" y="664"/>
			<point x="698" y="648"/>
		</contour>
	</outline>
</glyph>
<glyph name="E006" format="2">
	<unicode hex="E006"/>
	<advance width="840"/>
	<outline>
		<contour>
			<point x="88" y="24" type="curve" smooth="yes"/>
			<point x="54" y="24"/>
			<point x="24" y="54"/>
			<point x="24" y="88" type="curve" smooth="yes"/>
			<point x="24" y="124"/>
			<point x="54" y="152"/>
			<point x="88" y="152" type="curve" smooth="yes"/>
			<point x="124" y="152"/>
			<point x="152" y="124"/>
			<point x="152" y="88" type="curve" smooth="yes"/>
			<point x="152" y="54"/>
			<point x="124" y="24"/>
		</contour>
		<contour>
			<point x="88" y="-8" type="curve" smooth="yes"/>
			<point x="142" y="-8"/>
			<point x="184" y="36"/>
			<point x="184" y="88" type="curve" smooth="yes"/>
			<point x="184" y="142"/>
			<point x="142" y="184"/>
			<point x="88" y="184" type="curve" smooth="yes"/>
			<point x="36" y="184"/>
			<point x="-8" y="142"/>
			<point x="-8" y="88" type="curve" smooth="yes"/>
			<point x="-8" y="36"/>
			<point x="36" y="-8"/>
		</contour>
		<contour>
			<point x="88" y="320" type="curve" smooth="yes"/>
			<point x="54" y="320"/>
			<point x="24" y="350"/>
			<point x="24" y="384" type="curve" smooth="yes"/>
			<point x="24" y="420"/>
			<point x="54" y="448"/>
			<point x="88" y="448" type="curve" smooth="yes"/>
			<point x="124" y="448"/>
			<point x="152" y="420"/>
			<point x="152" y="384" type="curve" smooth="yes"/>
			<point x="152" y="350"/>
			<point x="124" y="320"/>
		</contour>
		<contour>
			<point x="88" y="288" type="curve" smooth="yes"/>
			<point x="142" y="288"/>
			<point x="184" y="332"/>
			<point x="184" y="384" type="curve" smooth="yes"/>
			<point x="184" y="438"/>
			<point x="142" y="480"/>
			<point x="88" y="480" type="curve" smooth="yes"/>
			<point x="36" y="480"/>
			<point x="-8" y="438"/>
			<point x="-8" y="384" type="curve" smooth="yes"/>
			<point x="-8" y="332"/>
			<point x="36" y="288"/>
		</contour>
		<contour>
			<point x="88" y="616" type="curve" smooth="yes"/>
			<point x="54" y="616"/>
			<point x="24" y="646"/>
			<point x="24" y="680" type="curve" smooth="yes"/>
			<point x="24" y="716"/>
			<point x="54" y="744"/>
			<point x="88" y="744" type="curve" smooth="yes"/>
			<point x="124" y="744"/>
			<point x="152" y="716"/>
			<point x="152" y="680" type="curve" smooth="yes"/>
			<point x="152" y="646"/>
			<point x="124" y="616"/>
		</contour>
		<contour>
			<point x="88" y="584" type="curve" smooth="yes"/>
			<point x="142" y="584"/>
			<point x="184" y="628"/>
			<point x="184" y="680" type="curve" smooth="yes"/>
			<point x="184" y="734"/>
			<point x="142" y="776"/>
			<point x="88" y="776" type="curve" smooth="yes"/>
			<point x="36" y="776"/>
			<point x="-8" y="734"/>
			<point x="-8" y="680" type="curve" smooth="yes"/>
			<point x="-8" y="628"/>
			<point x="36" y="584"/>
		</contour>
		<contour>
			<point x="384" y="24" type="curve" smooth="yes"/>
			<point x="350" y="24"/>
			<point x="320" y="54"/>
			<point x="320" y="88" type="curve" smooth="yes"/>
			<point x="320" y="124"/>
			<point x="350" y="152"/>
			<point x="384" y="152" type="curve" smooth="yes"/>
			<point x="420" y="152"/>
			<point x="448" y="124"/>
			<point x="448" y="88" type="curve" smooth="yes"/>
			<point x="448" y="54"/>
			<point x="420" y="24"/>
		</contour>
		<contour>
			<point x="384" y="-8" type="curve" smooth="yes"/>
			<point x="438" y="-8"/>
			<point x="480" y="36"/>
			<point x="480" y="88" type="curve" smooth="yes"/>
			<point x="480" y="142"/>
			<point x="438" y="184"/>
			<point x="384" y="184" type="curve" smooth="yes"/>
			<point x="332" y="184"/>
			<point x="288" y="142"/>
			<point x="288" y="88" type="curve" smooth="yes"/>
			<point x="288" y="36"/>
			<point x="332" y="-8"/>
		</contour>
		<contour>
			<point x="384" y="320" type="curve" smooth="yes"/>
			<point x="350" y="320"/>
			<point x="320" y="350"/>
			<point x="320" y="384" type="curve" smooth="yes"/>
			<point x="320" y="420"/>
			<point x="350" y="448"/>
			<point x="384" y="448" type="curve" smooth="yes"/>
			<point x="420" y="448"/>
			<point x="448" y="420"/>
			<point x="448" y="384" type="curve" smooth="yes"/>
			<point x="448" y="350"/>
			<point x="420" y="320"/>
		</contour>
		<contour>
			<point x="384" y="288" type="curve" smooth="yes"/>
			<point x="438" y="288"/>
			<point x="480" y="332"/>
			<point x="480" y="384" type="curve" smooth="yes"/>
			<point x="480" y="438"/>
			<point x="438" y="480"/>
			<point x="384" y="480" type="curve" smooth="yes"/>
			<point x="332" y="480"/>
			<point x="288" y="438"/>
			<point x="288" y="384" type="curve" smooth="yes"/>
			<point x="288" y="332"/>
			<point x="332" y="288"/>
		</contour>
		<contour>
			<point x="384" y="616" type="curve" smooth="yes"/>
			<point x="350" y="616"/>
			<point x="320" y="646"/>
			<point x="320" y="680" type="curve" smooth="yes"/>
			<point x="320" y="716"/>
			<point x="350" y="744"/>
			<point x="384" y="744" type="curve" smooth="yes"/>
			<point x="420" y="744"/>
			<point x="448" y="716"/>
			<point x="448" y="680" type="curve" smooth="yes"/>
			<point x="448" y="646"/>
			<point x="420" y="616"/>
		</contour>
		<contour>
			<point x="384" y="584" type="curve" smooth="yes"/>
			<point x="438" y="584"/>
			<point x="480" y="628"/>
			<point x="480" y="680" type="curve" smooth="yes"/>
			<point x="480" y="734"/>
			<point x="438" y="776"/>
			<point x="384" y="776" type="curve" smooth="yes"/>
			<point x="332" y="776"/>
			<point x="288" y="734"/>
			<point x="288" y="680" type="curve" smooth="yes"/>
			<point x="288" y="628"/>
			<point x="332" y="584"/>
		</contour>
		<contour>
			<point x="680" y="24" type="curve" smooth="yes"/>
			<point x="646" y="24"/>
			<point x="616" y="54"/>
			<point x="616" y="88" type="curve" smooth="yes"/>
			<point x="616" y="124"/>
			<point x="646" y="152"/>
			<point x="680" y="152" type="curve" smooth="yes"/>
			<point x="716" y="152"/>
			<point x="744" y="124"/>
			<point x="744" y="88" type="curve" smooth="yes"/>
			<point x="744" y="54"/>
			<point x="716" y="24"/>
		</contour>
		<contour>
			<point x="680" y="-8" type="curve" smooth="yes"/>
			<point x="734" y="-8"/>
			<point x="776" y="36"/>
			<point x="776" y="88" type="curve" smooth="yes"/>
			<point x="776" y="142"/>
			<point x="734" y="184"/>
			<point x="680" y="184" type="curve" smooth="yes"/>
			<point x="628" y="184"/>
			<point x="584" y="142"/>
			<point x="584" y="88" type="curve" smooth="yes"/>
			<point x="584" y="36"/>
			<point x="628" y="-8"/>
		</contour>
		<contour>
			<point x="680" y="320" type="curve" smooth="yes"/>
			<point x="646" y="320"/>
			<point x="616" y="350"/>
			<point x="616" y="384" type="curve" smooth="yes"/>
			<point x="616" y="420"/>
			<point x="646" y="448"/>
			<point x="680" y="448" type="curve" smooth="yes"/>
			<point x="716" y="448"/>
			<point x="744" y="420"/>
			<point x="744" y="384" type="curve" smooth="yes"/>
			<point x="744" y="350"/>
			<point x="716" y="320"/>
		</contour>
		<contour>
			<point x="680" y="288" type="curve" smooth="yes"/>
			<point x="734" y="288"/>
			<point x="776" y="332"/>
			<point x="776" y="384" type="curve" smooth="yes"/>
			<point x="776" y="438"/>
			<point x="734" y="480"/>
			<point x="680" y="480" type="curve" smooth="yes"/>
			<point x="628" y="480"/>
			<point x="584" y="438"/>
			<point x="584" y="384" type="curve" smooth="yes"/>
			<point x="584" y="332"/>
			<point x="628" y="288"/>
		</contour>
		<contour>
			<point x="680" y="616" type="curve" smooth="yes"/>
			<point x="646" y="616"/>
			<point x="616" y="646"/>
			<point x="616" y="680" type="curve" smooth="yes"/>
			<point x="616" y="716"/>
			<point x="646" y="744"/>
			<point x="680" y="744" type="curve" smooth="yes"/>
			<point x="716" y="744"/>
			<point x="744" y="716"/>
			<point x="744" y="680" type="curve" smooth="yes"/>
			<point x="744" y="646"/>
			<point x="716" y="616"/>
		</contour>
		<contour>
			<point x="680" y="584" type="curve" smooth="yes"/>
			<point x="734" y="584"/>
			<point x="776" y="628"/>
			<point x="776" y="680" type="curve" smooth="yes"/>
			<point x="776" y="734"/>
			<point x="734" y="776"/>
			<point x="680" y="776" type="curve" smooth="yes"/>
			<point x="628" y="776"/>
			<point x="584" y="734"/>
			<point x="584" y="680" type="curve" smooth="yes"/>
			<point x="584" y="628"/>
			<point x="628" y="584"/>
		</contour>
	</outline>
</glyph>
<glyph name="E007" format="2">
	<unicode hex="E007"/>
	<advance width="840"/>
	<outline>
		<contour>
			<point x="56" y="-8" type="curve" smooth="yes"/>
			<point x="92" y="-8"/>
			<point x="120" y="22"/>
			<point x="120" y="56" type="curve" smooth="yes"/>
			<point x="120" y="92"/>
			<point x="92" y="120"/>
			<point x="56" y="120" type="curve" smooth="yes"/>
			<point x="22" y="120"/>
			<point x="-8" y="92"/>
			<point x="-8" y="56" type="curve" smooth="yes"/>
			<point x="-8" y="22"/>
			<point x="22" y="-8"/>
		</contour>
		<contour>
			<point x="56" y="320" type="curve" smooth="yes"/>
			<point x="92" y="320"/>
			<point x="120" y="350"/>
			<point x="120" y="384" type="curve" smooth="yes"/>
			<point x="120" y="420"/>
			<point x="92" y="448"/>
			<point x="56" y="448" type="curve" smooth="yes"/>
			<point x="22" y="448"/>
			<point x="-8" y="420"/>
			<point x="-8" y="384" type="curve" smooth="yes"/>
			<point x="-8" y="350"/>
			<point x="22" y="320"/>
		</contour>
		<contour>
			<point x="56" y="648" type="curve" smooth="yes"/>
			<point x="92" y="648"/>
			<point x="120" y="678"/>
			<point x="120" y="712" type="curve" smooth="yes"/>
			<point x="120" y="748"/>
			<point x="92" y="776"/>
			<point x="56" y="776" type="curve" smooth="yes"/>
			<point x="22" y="776"/>
			<point x="-8" y="748"/>
			<point x="-8" y="712" type="curve" smooth="yes"/>
			<point x="-8" y="678"/>
			<point x="22" y="648"/>
		</contour>
		<contour>
			<point x="384" y="-8" type="curve" smooth="yes"/>
			<point x="420" y="-8"/>
			<point x="448" y="22"/>
			<point x="448" y="56" type="curve" smooth="yes"/>
			<point x="448" y="92"/>
			<point x="420" y="120"/>
			<point x="384" y="120" type="curve" smooth="yes"/>
			<point x="350" y="120"/>
			<point x="320" y="92"/>
			<point x="320" y="56" type="curve" smooth="yes"/>
			<point x="320" y="22"/>
			<point x="350" y="-8"/>
		</contour>
		<contour>
			<point x="384" y="320" type="curve" smooth="yes"/>
			<point x="420" y="320"/>
			<point x="448" y="350"/>
			<point x="448" y="384" type="curve" smooth="yes"/>
			<point x="448" y="420"/>
			<point x="420" y="448"/>
			<point x="384" y="448" type="curve" smooth="yes"/>
			<point x="350" y="448"/>
			<point x="320" y="420"/>
			<point x="320" y="384" type="curve" smooth="yes"/>
			<point x="320" y="350"/>
			<point x="350" y="320"/>
		</contour>
		<contour>
			<point x="384" y="648" type="curve" smooth="yes"/>
			<point x="420" y="648"/>
			<point x="448" y="678"/>
			<point x="448" y="712" type="curve" smooth="yes"/>
			<point x="448" y="748"/>
			<point x="420" y="776"/>
			<point x="384" y="776" type="curve" smooth="yes"/>
			<point x="350" y="776"/>
			<point x="320" y="748"/>
			<point x="320" y="712" type="curve" smooth="yes"/>
			<point x="320" y="678"/>
			<point x="350" y="648"/>
		</contour>
		<contour>
			<point x="712" y="-8" type="curve" smooth="yes"/>
			<point x="748" y="-8"/>
			<point x="776" y="22"/>
			<point x="776" y="56" type="curve" smooth="yes"/>
			<point x="776" y="92"/>
			<point x="748" y="120"/>
			<point x="712" y="120" type="curve" smooth="yes"/>
			<point x="678" y="120"/>
			<point x="648" y="92"/>
			<point x="648" y="56" type="curve" smooth="yes"/>
			<point x="648" y="22"/>
			<point x="678" y="-8"/>
		</contour>
		<contour>
			<point x="712" y="320" type="curve" smooth="yes"/>
			<point x="748" y="320"/>
			<point x="776" y="350"/>
			<point x="776" y="384" type="curve" smooth="yes"/>
			<point x="776" y="420"/>
			<point x="748" y="448"/>
			<point x="712" y="448" type="curve" smooth="yes"/>
			<point x="678" y="448"/>
			<point x="648" y="420"/>
			<point x="648" y="384" type="curve" smooth="yes"/>
			<point x="648" y="350"/>
			<point x="678" y="320"/>
		</contour>
		<contour>
			<point x="712" y="648" type="curve" smooth="yes"/>
			<point x="748" y="648"/>
			<point x="776" y="678"/>
			<point x="776" y="712" type="curve" smooth="yes"/>
			<point x="776" y="748"/>
			<point x="748" y="776"/>
			<point x="712" y="776" type="curve" smooth="yes"/>
			<point x="678" y="776"/>
			<point x="648" y="748"/>
			<point x="648" y="712" type="curve" smooth="yes"/>
			<point x="648" y="678"/>
			<point x="678" y="648"/>
		</contour>
		<contour>
			<point x="36" y="96" type="line"/>
			<point x="76" y="96" type="line"/>
			<point x="76" y="352" type="line"/>
			<point x="36" y="352" type="line"/>
		</contour>
		<contour>
			<point x="36" y="416" type="line"/>
			<point x="76" y="416" type="line"/>
			<point x="76" y="672" type="line"/>
			<point x="36" y="672" type="line"/>
		</contour>
		<contour>
			<point x="364" y="96" type="line"/>
			<point x="404" y="96" type="line"/>
			<point x="404" y="352" type="line"/>
			<point x="364" y="352" type="line"/>
		</contour>
		<contour>
			<point x="364" y="416" type="line"/>
			<point x="404" y="416" type="line"/>
			<point x="404" y="672" type="line"/>
			<point x="364" y="672" type="line"/>
		</contour>
		<contour>
			<point x="692" y="96" type="line"/>
			<point x="732" y="96" type="line"/>
			<point x="732" y="352" type="line"/>
			<point x="692" y="352" type="line"/>
		</contour>
		<contour>
			<point x="692" y="416" type="line"/>
			<point x="732" y="416" type="line"/>
			<point x="732" y="672" type="line"/>
			<point x="692" y="672" type="line"/>
		</contour>
		<contour>
			<point x="416" y="692" type="line"/>
			<point x="672" y="692" type="line"/>
			<point x="672" y="732" type="line"/>
			<point x="416" y="732" type="line"/>
		</contour>
		<contour>
			<point x="96" y="692" type="line"/>
			<point x="352" y="692" type="line"/>
			<point x="352" y="732" type="line"/>
			<point x="96" y="732" type="line"/>
		</contour>
		<contour>
			<point x="416" y="364" type="line"/>
			<point x="672" y="364" type="line"/>
			<point x="672" y="404" type="line"/>
			<point x="416" y="404" type="line"/>
		</contour>
		<contour>
			<point x="96" y="364" type="line"/>
			<point x="352" y="364" type="line"/>
			<point x="352" y="404" type="line"/>
			<point x="96" y="404" type="line"/>
		</contour>
		<contour>
			<point x="416" y="36" type="line"/>
			<point x="672" y="36" type="line"/>
			<point x="672" y="76" type="line"/>
			<point x="416" y="76" type="line"/>
		</contour>
		<contour>
			<point x="96" y="36" type="line"/>
			<point x="352" y="36" type="line"/>
			<point x="352" y="76" type="line"/>
			<point x="96" y="76" type="line"/>
		</contour>
	</outline>
</glyph>
<glyph name="E009" format="2">
	<unicode hex="E009"/>
	<advance width="768"/>
	<outline>
		<contour>
			<point x="40" y="96" type="line"/>
			<point x="88" y="96" type="line"/>
			<point x="88" y="352" type="line"/>
			<point x="40" y="352" type="line"/>
		</contour>
		<contour>
			<point x="40" y="416" type="line"/>
			<point x="88" y="416" type="line"/>
			<point x="88" y="672" type="line"/>
			<point x="40" y="672" type="line"/>
		</contour>
		<contour>
			<point x="360" y="96" type="line"/>
			<point x="408" y="96" type="line"/>
			<point x="408" y="352" type="line"/>
			<point x="360" y="352" type="line"/>
		</contour>
		<contour>
			<point x="360" y="416" type="line"/>
			<point x="408" y="416" type="line"/>
			<point x="408" y="672" type="line"/>
			<point x="360" y="672" type="line"/>
		</contour>
		<contour>
			<point x="680" y="96" type="line"/>
			<point x="728" y="96" type="line"/>
			<point x="728" y="352" type="line"/>
			<point x="680" y="352" type="line"/>
		</contour>
		<contour>
			<point x="680" y="416" type="line"/>
			<point x="728" y="416" type="line"/>
			<point x="728" y="672" type="line"/>
			<point x="680" y="672" type="line"/>
		</contour>
		<contour>
			<point x="416" y="680" type="line"/>
			<point x="672" y="680" type="line"/>
			<point x="672" y="728" type="line"/>
			<point x="416" y="728" type="line"/>
		</contour>
		<contour>
			<point x="96" y="680" type="line"/>
			<point x="352" y="680" type="line"/>
			<point x="352" y="728" type="line"/>
			<point x="96" y="728" type="line"/>
		</contour>
		<contour>
			<point x="416" y="360" type="line"/>
			<point x="672" y="360" type="line"/>
			<point x="672" y="408" type="line"/>
			<point x="416" y="408" type="line"/>
		</contour>
		<contour>
			<point x="96" y="360" type="line"/>
			<point x="352" y="360" type="line"/>
			<point x="352" y="408" type="line"/>
			<point x="96" y="408" type="line"/>
		</contour>
		<contour>
			<point x="416" y="40" type="line"/>
			<point x="672" y="40" type="line"/>
			<point x="672" y="88" type="line"/>
			<point x="416" y="88" type="line"/>
		</contour>
		<contour>
			<point x="96" y="40" type="line"/>
			<point x="352" y="40" type="line"/>
			<point x="352" y="88" type="line"/>
			<point x="96" y="88" type="line"/>
		</contour>
		<contour>
			<point x="64" y="-8" type="curve" smooth="yes"/>
			<point x="104" y="-8"/>
			<point x="136" y="24"/>
			<point x="136" y="64" type="curve" smooth="yes"/>
			<point x="136" y="104"/>
			<point x="104" y="136"/>
			<point x="64" y="136" type="curve" smooth="yes"/>
			<point x="24" y="136"/>
			<point x="-8" y="104"/>
			<point x="-8" y="64" type="curve" smooth="yes"/>
			<point x="-8" y="24"/>
			<point x="24" y="-8"/>
		</contour>
		<contour>
			<point x="384" y="-8" type="curve" smooth="yes"/>
			<point x="424" y="-8"/>
			<point x="456" y="24"/>
			<point x="456" y="64" type="curve" smooth="yes"/>
			<point x="456" y="104"/>
			<point x="424" y="136"/>
			<point x="384" y="136" type="curve" smooth="yes"/>
			<point x="344" y="136"/>
			<point x="312" y="104"/>
			<point x="312" y="64" type="curve" smooth="yes"/>
			<point x="312" y="24"/>
			<point x="344" y="-8"/>
		</contour>
		<contour>
			<point x="704" y="-8" type="curve" smooth="yes"/>
			<point x="744" y="-8"/>
			<point x="776" y="24"/>
			<point x="776" y="64" type="curve" smooth="yes"/>
			<point x="776" y="104"/>
			<point x="744" y="136"/>
			<point x="704" y="136" type="curve" smooth="yes"/>
			<point x="664" y="136"/>
			<point x="632" y="104"/>
			<point x="632" y="64" type="curve" smooth="yes"/>
			<point x="632" y="24"/>
			<point x="664" y="-8"/>
		</contour>
		<contour>
			<point x="64" y="632" type="curve" smooth="yes"/>
			<point x="104" y="632"/>
			<point x="136" y="664"/>
			<point x="136" y="704" type="curve" smooth="yes"/>
			<point x="136" y="744"/>
			<point x="104" y="776"/>
			<point x="64" y="776" type="curve" smooth="yes"/>
			<point x="24" y="776"/>
			<point x="-8" y="744"/>
			<point x="-8" y="704" type="curve" smooth="yes"/>
			<point x="-8" y="664"/>
			<point x="24" y="632"/>
		</contour>
		<contour>
			<point x="384" y="632" type="curve" smooth="yes"/>
			<point x="424" y="632"/>
			<point x="456" y="664"/>
			<point x="456" y="704" type="curve" smooth="yes"/>
			<point x="456" y="744"/>
			<point x="424" y="776"/>
			<point x="384" y="776" type="curve" smooth="yes"/>
			<point x="344" y="776"/>
			<point x="312" y="744"/>
			<point x="312" y="704" type="curve" smooth="yes"/>
			<point x="312" y="664"/>
			<point x="344" y="632"/>
		</contour>
		<contour>
			<point x="704" y="632" type="curve" smooth="yes"/>
			<point x="744" y="632"/>
			<point x="776" y="664"/>
			<point x="776" y="704" type="curve" smooth="yes"/>
			<point x="776" y="744"/>
			<point x="744" y="776"/>
			<point x="704" y="776" type="curve" smooth="yes"/>
			<point x="664" y="776"/>
			<point x="632" y="744"/>
			<point x="632" y="704" type="curve" smooth="yes"/>
			<point x="632" y="664"/>
			<point x="664" y="632"/>
		</contour>
		<contour>
			<point x="64" y="312" type="curve" smooth="yes"/>
			<point x="104" y="312"/>
			<point x="136" y="344"/>
			<point x="136" y="384" type="curve" smooth="yes"/>
			<point x="136" y="424"/>
			<point x="104" y="456"/>
			<point x="64" y="456" type="curve" smooth="yes"/>
			<point x="24" y="456"/>
			<point x="-8" y="424"/>
			<point x="-8" y="384" type="curve" smooth="yes"/>
			<point x="-8" y="344"/>
			<point x="24" y="312"/>
		</contour>
		<contour>
			<point x="384" y="312" type="curve" smooth="yes"/>
			<point x="424" y="312"/>
			<point x="456" y="344"/>
			<point x="456" y="384" type="curve" smooth="yes"/>
			<point x="456" y="424"/>
			<point x="424" y="456"/>
			<point x="384" y="456" type="curve" smooth="yes"/>
			<point x="344" y="456"/>
			<point x="312" y="424"/>
			<point x="312" y="384" type="curve" smooth="yes"/>
			<point x="312" y="344"/>
			<point x="344" y="312"/>
		</contour>
		<contour>
			<point x="704" y="312" type="curve" smooth="yes"/>
			<point x="744" y="312"/>
			<point x="776" y="344"/>
			<point x="776" y="384" type="curve" smooth="yes"/>
			<point x="776" y="424"/>
			<point x="744" y="456"/>
			<point x="704" y="456" type="curve" smooth="yes"/>
			<point x="664" y="456"/>
			<point x="632" y="424"/>
			<point x="632" y="384" type="curve" smooth="yes"/>
			<point x="632" y="344"/>
			<point x="664" y="312"/>
		</contour>
		<contour>
			<point x="384" y="32" type="curve" smooth="yes"/>
			<point x="366" y="32"/>
			<point x="352" y="46"/>
			<point x="352" y="64" type="curve" smooth="yes"/>
			<point x="352" y="82"/>
			<point x="366" y="96"/>
			<point x="384" y="96" type="curve" smooth="yes"/>
			<point x="402" y="96"/>
			<point x="416" y="82"/>
			<point x="416" y="64" type="curve" smooth="yes"/>
			<point x="416" y="46"/>
			<point x="402" y="32"/>
		</contour>
		<contour>
			<point x="64" y="352" type="curve" smooth="yes"/>
			<point x="46" y="352"/>
			<point x="32" y="366"/>
			<point x="32" y="384" type="curve" smooth="yes"/>
			<point x="32" y="402"/>
			<point x="46" y="416"/>
			<point x="64" y="416" type="curve" smooth="yes"/>
			<point x="82" y="416"/>
			<point x="96" y="402"/>
			<point x="96" y="384" type="curve" smooth="yes"/>
			<point x="96" y="366"/>
			<point x="82" y="352"/>
		</contour>
		<contour>
			<point x="64" y="32" type="curve" smooth="yes"/>
			<point x="46" y="32"/>
			<point x="32" y="46"/>
			<point x="32" y="64" type="curve" smooth="yes"/>
			<point x="32" y="82"/>
			<point x="46" y="96"/>
			<point x="64" y="96" type="curve" smooth="yes"/>
			<point x="82" y="96"/>
			<point x="96" y="82"/>
			<point x="96" y="64" type="curve" smooth="yes"/>
			<point x="96" y="46"/>
			<point x="82" y="32"/>
		</contour>
		<contour>
			<point x="64" y="672" type="curve" smooth="yes"/>
			<point x="46" y="672"/>
			<point x="32" y="686"/>
			<point x="32" y="704" type="curve" smooth="yes"/>
			<point x="32" y="722"/>
			<point x="46" y="736"/>
			<point x="64" y="736" type="curve" smooth="yes"/>
			<point x="82" y="736"/>
			<point x="96" y="722"/>
			<point x="96" y="704" type="curve" smooth="yes"/>
			<point x="96" y="686"/>
			<point x="82" y="672"/>
		</contour>
		<contour>
			<point x="704" y="352" type="curve" smooth="yes"/>
			<point x="686" y="352"/>
			<point x="672" y="366"/>
			<point x="672" y="384" type="curve" smooth="yes"/>
			<point x="672" y="402"/>
			<point x="686" y="416"/>
			<point x="704" y="416" type="curve" smooth="yes"/>
			<point x="722" y="416"/>
			<point x="736" y="402"/>
			<point x="736" y="384" type="curve" smooth="yes"/>
			<point x="736" y="366"/>
			<point x="722" y="352"/>
		</contour>
		<contour>
			<point x="704" y="32" type="curve" smooth="yes"/>
			<point x="686" y="32"/>
			<point x="672" y="46"/>
			<point x="672" y="64" type="curve" smooth="yes"/>
			<point x="672" y="82"/>
			<point x="686" y="96"/>
			<point x="704" y="96" type="curve" smooth="yes"/>
			<point x="722" y="96"/>
			<point x="736" y="82"/>
			<point x="736" y="64" type="curve" smooth="yes"/>
			<point x="736" y="46"/>
			<point x="722" y="32"/>
		</contour>
		<contour>
			<point x="704" y="672" type="curve" smooth="yes"/>
			<point x="686" y="672"/>
			<point x="672" y="686"/>
			<point x="672" y="704" type="curve" smooth="yes"/>
			<point x="672" y="722"/>
			<point x="686" y="736"/>
			<point x="704" y="736" type="curve" smooth="yes"/>
			<point x="722" y="736"/>
			<point x="736" y="722"/>
			<point x="736" y="704" type="curve" smooth="yes"/>
			<point x="736" y="686"/>
			<point x="722" y="672"/>
		</contour>
		<contour>
			<point x="384" y="354" type="curve" smooth="yes"/>
			<point x="366" y="354"/>
			<point x="352" y="368"/>
			<point x="352" y="386" type="curve" smooth="yes"/>
			<point x="352" y="404"/>
			<point x="366" y="418"/>
			<point x="384" y="418" type="curve" smooth="yes"/>
			<point x="402" y="418"/>
			<point x="416" y="404"/>
			<point x="416" y="386" type="curve" smooth="yes"/>
			<point x="416" y="368"/>
			<point x="402" y="354"/>
		</contour>
		<contour>
			<point x="384" y="672" type="curve" smooth="yes"/>
			<point x="366" y="672"/>
			<point x="352" y="686"/>
			<point x="352" y="704" type="curve" smooth="yes"/>
			<point x="352" y="722"/>
			<point x="366" y="736"/>
			<point x="384" y="736" type="curve" smooth="yes"/>
			<point x="402" y="736"/>
			<point x="416" y="722"/>
			<point x="416" y="704" type="curve" smooth="yes"/>
			<point x="416" y="686"/>
			<point x="402" y="672"/>
		</contour>
	</outline>
</glyph>
<glyph name="E011" format="2">
	<unicode hex="E011"/>
	<advance width="640"/>
	<outline>
		<contour>
			<point x="200" y="0" type="curve" smooth="yes"/>
			<point x="432" y="0" type="line" smooth="yes"/>
			<point x="452" y="0"/>
			<point x="456" y="4"/>
			<point x="456" y="24" type="curve" smooth="yes"/>
			<point x="456" y="90" type="line" smooth="yes"/>
			<point x="456" y="110"/>
			<point x="452" y="114"/>
			<point x="432" y="114" type="curve" smooth="yes"/>
			<point x="200" y="114" type="line" smooth="yes"/>
			<point x="180" y="114"/>
			<point x="176" y="110"/>
			<point x="176" y="90" type="curve" smooth="yes"/>
			<point x="176" y="24" type="line" smooth="yes"/>
			<point x="176" y="4"/>
			<point x="180" y="0"/>
		</contour>
		<contour>
			<point x="200" y="166" type="curve" smooth="yes"/>
			<point x="432" y="166" type="line" smooth="yes"/>
			<point x="454" y="166"/>
			<point x="460" y="164"/>
			<point x="480" y="192" type="curve" smooth="yes"/>
			<point x="548" y="284" type="line" smooth="yes"/>
			<point x="556" y="296"/>
			<point x="564" y="306"/>
			<point x="564" y="316" type="curve" smooth="yes"/>
			<point x="564" y="352" type="line" smooth="yes"/>
			<point x="564" y="358"/>
			<point x="560" y="372"/>
			<point x="556" y="384" type="curve" smooth="yes"/>
			<point x="440" y="736" type="line" smooth="yes"/>
			<point x="430" y="768"/>
			<point x="416" y="768"/>
			<point x="400" y="768" type="curve" smooth="yes"/>
			<point x="364" y="768" type="line" smooth="yes"/>
			<point x="348" y="768"/>
			<point x="342" y="760"/>
			<point x="342" y="736" type="curve" smooth="yes"/>
			<point x="342" y="432" type="line" smooth="yes"/>
			<point x="342" y="410"/>
			<point x="346" y="406"/>
			<point x="352" y="402" type="curve" smooth="yes"/>
			<point x="374" y="390"/>
			<point x="392" y="368"/>
			<point x="392" y="334" type="curve" smooth="yes"/>
			<point x="392" y="290"/>
			<point x="360" y="258"/>
			<point x="316" y="258" type="curve" smooth="yes"/>
			<point x="272" y="258"/>
			<point x="240" y="290"/>
			<point x="240" y="334" type="curve" smooth="yes"/>
			<point x="240" y="368"/>
			<point x="258" y="390"/>
			<point x="280" y="402" type="curve" smooth="yes"/>
			<point x="286" y="406"/>
			<point x="290" y="410"/>
			<point x="290" y="432" type="curve" smooth="yes"/>
			<point x="290" y="736" type="line" smooth="yes"/>
			<point x="290" y="760"/>
			<point x="284" y="768"/>
			<point x="268" y="768" type="curve" smooth="yes"/>
			<point x="232" y="768" type="line" smooth="yes"/>
			<point x="216" y="768"/>
			<point x="202" y="768"/>
			<point x="192" y="736" type="curve" smooth="yes"/>
			<point x="76" y="384" type="line" smooth="yes"/>
			<point x="72" y="372"/>
			<point x="68" y="358"/>
			<point x="68" y="352" type="curve" smooth="yes"/>
			<point x="68" y="316" type="line" smooth="yes"/>
			<point x="68" y="306"/>
			<point x="76" y="296"/>
			<point x="84" y="284" type="curve" smooth="yes"/>
			<point x="152" y="192" type="line" smooth="yes"/>
			<point x="172" y="166"/>
			<point x="180" y="166"/>
		</contour>
	</outline>
</glyph>
<glyph name="E013" format="2">
	<unicode hex="E013"/>
	<advance width="768"/>
	<outline>
		<contour>
			<point x="746" y="362" type="curve" smooth="yes"/>
			<point x="772" y="388"/>
			<point x="770" y="430"/>
			<point x="746" y="454" type="curve" smooth="yes"/>
			<point x="720" y="480"/>
			<point x="680" y="480"/>
			<point x="654" y="454" type="curve" smooth="yes"/>
			<point x="638" y="438"/>
			<point x="632" y="380"/>
			<point x="616" y="364" type="curve" smooth="yes"/>
			<point x="572" y="320" type="line" smooth="yes"/>
			<point x="564" y="312"/>
			<point x="556" y="316"/>
			<point x="552" y="322" type="curve" smooth="yes"/>
			<point x="230" y="710" type="line" smooth="yes"/>
			<point x="224" y="718"/>
			<point x="220" y="728"/>
			<point x="214" y="734" type="curve" smooth="yes"/>
			<point x="208" y="740"/>
			<point x="198" y="744"/>
			<point x="190" y="744" type="curve" smooth="yes"/>
			<point x="28" y="762" type="line" smooth="yes"/>
			<point x="16" y="764"/>
			<point x="10" y="760"/>
			<point x="8" y="758" type="curve" smooth="yes"/>
			<point x="4" y="754"/>
			<point x="2" y="750"/>
			<point x="4" y="738" type="curve" smooth="yes"/>
			<point x="20" y="582" type="line" smooth="yes"/>
			<point x="20" y="574"/>
			<point x="28" y="556"/>
			<point x="34" y="550" type="curve" smooth="yes"/>
			<point x="40" y="544"/>
			<point x="48" y="540"/>
			<point x="54" y="536" type="curve" smooth="yes"/>
			<point x="444" y="214" type="line" smooth="yes"/>
			<point x="450" y="210"/>
			<point x="454" y="202"/>
			<point x="446" y="194" type="curve" smooth="yes"/>
			<point x="388" y="136" type="line" smooth="yes"/>
			<point x="372" y="120"/>
			<point x="316" y="116"/>
			<point x="298" y="98" type="curve" smooth="yes"/>
			<point x="274" y="74"/>
			<point x="272" y="32"/>
			<point x="298" y="6" type="curve" smooth="yes"/>
			<point x="322" y="-18"/>
			<point x="366" y="-18"/>
			<point x="390" y="6" type="curve" smooth="yes"/>
			<point x="408" y="24"/>
			<point x="412" y="80"/>
			<point x="428" y="96" type="curve" smooth="yes"/>
			<point x="492" y="160" type="line" smooth="yes"/>
			<point x="500" y="168"/>
			<point x="506" y="168"/>
			<point x="514" y="160" type="curve" smooth="yes"/>
			<point x="518" y="156"/>
			<point x="532" y="138"/>
			<point x="578" y="92" type="curve" smooth="yes"/>
			<point x="598" y="72"/>
			<point x="630" y="48"/>
			<point x="632" y="46" type="curve" smooth="yes"/>
			<point x="640" y="38"/>
			<point x="636" y="16"/>
			<point x="644" y="8" type="curve" smooth="yes"/>
			<point x="668" y="-16"/>
			<point x="710" y="8"/>
			<point x="734" y="32" type="curve" smooth="yes"/>
			<point x="760" y="58"/>
			<point x="782" y="98"/>
			<point x="758" y="122" type="curve" smooth="yes"/>
			<point x="750" y="130"/>
			<point x="728" y="126"/>
			<point x="720" y="134" type="curve" smooth="yes"/>
			<point x="718" y="136"/>
			<point x="694" y="168"/>
			<point x="674" y="188" type="curve" smooth="yes"/>
			<point x="644" y="218"/>
			<point x="610" y="248"/>
			<point x="606" y="252" type="curve" smooth="yes"/>
			<point x="598" y="260"/>
			<point x="598" y="266"/>
			<point x="606" y="274" type="curve" smooth="yes"/>
			<point x="656" y="324" type="line" smooth="yes"/>
			<point x="674" y="342"/>
			<point x="730" y="346"/>
		</contour>
	</outline>
</glyph>
<glyph name="E016" format="2">
	<unicode hex="E016"/>
	<advance width="768"/>
	<outline>
		<contour>
			<point x="460" y="546" type="line"/>
			<point x="538" y="546" type="line"/>
			<point x="538" y="736" type="line" smooth="yes"/>
			<point x="538" y="756"/>
			<point x="526" y="768"/>
			<point x="506" y="768" type="curve" smooth="yes"/>
			<point x="32" y="768" type="line" smooth="yes"/>
			<point x="12" y="768"/>
			<point x="0" y="756"/>
			<point x="0" y="736" type="curve" smooth="yes"/>
			<point x="0" y="262" type="line" smooth="yes"/>
			<point x="0" y="242"/>
			<point x="12" y="230"/>
			<point x="32" y="230" type="curve" smooth="yes"/>
			<point x="220" y="230" type="line"/>
			<point x="220" y="308" type="line"/>
			<point x="102" y="308" type="line" smooth="yes"/>
			<point x="86" y="308"/>
			<point x="78" y="316"/>
			<point x="78" y="332" type="curve" smooth="yes"/>
			<point x="78" y="666" type="line" smooth="yes"/>
			<point x="78" y="682"/>
			<point x="86" y="690"/>
			<point x="102" y="690" type="curve" smooth="yes"/>
			<point x="436" y="690" type="line" smooth="yes"/>
			<point x="452" y="690"/>
			<point x="460" y="682"/>
			<point x="460" y="666" type="curve" smooth="yes"/>
		</contour>
		<contour>
			<point x="486" y="-16" type="curve" smooth="yes"/>
			<point x="648" y="-16"/>
			<point x="782" y="116"/>
			<point x="782" y="280" type="curve" smooth="yes"/>
			<point x="782" y="444"/>
			<point x="648" y="576"/>
			<point x="486" y="576" type="curve" smooth="yes"/>
			<point x="322" y="576"/>
			<point x="192" y="444"/>
			<point x="192" y="280" type="curve" smooth="yes"/>
			<point x="192" y="116"/>
			<point x="322" y="-16"/>
		</contour>
		<contour>
			<point x="486" y="64" type="curve" smooth="yes"/>
			<point x="368" y="64"/>
			<point x="270" y="160"/>
			<point x="270" y="280" type="curve" smooth="yes"/>
			<point x="270" y="400"/>
			<point x="368" y="496"/>
			<point x="486" y="496" type="curve" smooth="yes"/>
			<point x="606" y="496"/>
			<point x="702" y="400"/>
			<point x="702" y="280" type="curve" smooth="yes"/>
			<point x="702" y="160"/>
			<point x="606" y="64"/>
		</contour>
	</outline>
</glyph>
<glyph name="E019" format="2">
  <advance width="768"/>
  <unicode hex="E019"/>
  <outline>
    <contour>
      <point x="384" y="80" type="curve" smooth="yes"/>
      <point x="546" y="80"/>
      <point x="680" y="212"/>
      <point x="680" y="376" type="curve" smooth="yes"/>
      <point x="680" y="540"/>
      <point x="546" y="672"/>
      <point x="384" y="672" type="curve" smooth="yes"/>
      <point x="220" y="672"/>
      <point x="90" y="540"/>
      <point x="90" y="376" type="curve" smooth="yes"/>
      <point x="90" y="212"/>
      <point x="220" y="80"/>
    </contour>
    <contour>
      <point x="384" y="160" type="curve" smooth="yes"/>
      <point x="266" y="160"/>
      <point x="168" y="256"/>
      <point x="168" y="376" type="curve" smooth="yes"/>
      <point x="168" y="496"/>
      <point x="266" y="592"/>
      <point x="384" y="592" type="curve" smooth="yes"/>
      <point x="504" y="592"/>
      <point x="600" y="496"/>
      <point x="600" y="376" type="curve" smooth="yes"/>
      <point x="600" y="256"/>
      <point x="504" y="160"/>
    </contour>
  </outline>
</glyph>
<glyph name="E020" format="2">
	<unicode hex="E020"/>
	<advance width="768"/>
	<outline>
		<contour>
			<point x="120" y="522" type="curve" smooth="yes"/>
			<point x="120" y="230" type="line" smooth="yes"/>
			<point x="120" y="150"/>
			<point x="172" y="98"/>
			<point x="252" y="98" type="curve" smooth="yes"/>
			<point x="516" y="98" type="line" smooth="yes"/>
			<point x="596" y="98"/>
			<point x="648" y="150"/>
			<point x="648" y="230" type="curve" smooth="yes"/>
			<point x="648" y="522" type="line" smooth="yes"/>
			<point x="648" y="602"/>
			<point x="596" y="654"/>
			<point x="516" y="654" type="curve" smooth="yes"/>
			<point x="252" y="654" type="line" smooth="yes"/>
			<point x="172" y="654"/>
			<point x="120" y="602"/>
		</contour>
		<contour>
			<point x="198" y="256" type="curve" smooth="yes"/>
			<point x="198" y="496" type="line" smooth="yes"/>
			<point x="198" y="552"/>
			<point x="222" y="576"/>
			<point x="278" y="576" type="curve" smooth="yes"/>
			<point x="490" y="576" type="line" smooth="yes"/>
			<point x="546" y="576"/>
			<point x="570" y="552"/>
			<point x="570" y="496" type="curve" smooth="yes"/>
			<point x="570" y="256" type="line" smooth="yes"/>
			<point x="570" y="200"/>
			<point x="546" y="176"/>
			<point x="490" y="176" type="curve" smooth="yes"/>
			<point x="278" y="176" type="line" smooth="yes"/>
			<point x="222" y="176"/>
			<point x="198" y="200"/>
		</contour>
	</outline>
</glyph>
<glyph name="E021" format="2">
  <advance width="600"/>
  <unicode hex="E021"/>
  <outline>
    <contour>
      <point x="94" y="748" type="line"/>
      <point x="26" y="616" type="line"/>
      <point x="22" y="414" type="line"/>
      <point x="56" y="304" type="line"/>
      <point x="142" y="286" type="line"/>
      <point x="228" y="300" type="line"/>
      <point x="284" y="260" type="line"/>
      <point x="298" y="160" type="line"/>
      <point x="288" y="62" type="line"/>
      <point x="356" y="2" type="line"/>
      <point x="474" y="28" type="line"/>
      <point x="576" y="120" type="line"/>
      <point x="604" y="228" type="line"/>
      <point x="570" y="380" type="line"/>
      <point x="484" y="408" type="line"/>
      <point x="388" y="406" type="line"/>
      <point x="296" y="394" type="line"/>
      <point x="256" y="442" type="line"/>
      <point x="248" y="524" type="line"/>
      <point x="278" y="652" type="line"/>
      <point x="202" y="742" type="line"/>
    </contour>
    <contour>
      <point x="142" y="472" type="line"/>
      <point x="110" y="468" type="line"/>
      <point x="94" y="506" type="line"/>
      <point x="100" y="554" type="line"/>
      <point x="148" y="562" type="line"/>
      <point x="174" y="520" type="line"/>
    </contour>
    <contour>
      <point x="432" y="140" type="line"/>
      <point x="388" y="168" type="line"/>
      <point x="392" y="226" type="line"/>
      <point x="436" y="252" type="line"/>
      <point x="482" y="218" type="line"/>
      <point x="482" y="164" type="line"/>
    </contour>
  </outline>
</glyph>
<glyph name="F001" format="2">
  <advance width="600"/>
  <unicode hex="F001"/>
  <outline>
    <contour>
      <point x="314" y="190" type="curve" smooth="yes"/>
      <point x="368" y="190"/>
      <point x="412" y="234"/>
      <point x="412" y="288" type="curve" smooth="yes"/>
      <point x="412" y="342"/>
      <point x="368" y="386"/>
      <point x="314" y="386" type="curve" smooth="yes"/>
      <point x="260" y="386"/>
      <point x="216" y="342"/>
      <point x="216" y="288" type="curve" smooth="yes"/>
      <point x="216" y="234"/>
      <point x="260" y="190"/>
    </contour>
    <contour>
      <point x="88" y="274" type="curve" smooth="yes"/>
      <point x="16" y="274" type="line"/>
      <point x="18" y="174"/>
      <point x="160" y="32"/>
      <point x="318" y="32" type="curve" smooth="yes"/>
      <point x="476" y="32"/>
      <point x="544" y="202"/>
      <point x="538" y="290" type="curve"/>
      <point x="456" y="288" type="line"/>
      <point x="454" y="194"/>
      <point x="420" y="100"/>
      <point x="310" y="106" type="curve" smooth="yes"/>
      <point x="200" y="112"/>
      <point x="90" y="250"/>
    </contour>
  </outline>
</glyph>
<glyph name="F003" format="2">
  <advance width="848"/>
  <unicode hex="F003"/>
  <outline>
    <contour>
      <point x="320" y="356" type="curve" smooth="yes"/>
      <point x="272" y="356"/>
      <point x="190" y="394"/>
      <point x="190" y="464" type="curve" smooth="yes"/>
      <point x="190" y="544"/>
      <point x="234" y="604"/>
      <point x="344" y="604" type="curve" smooth="yes"/>
      <point x="464" y="604"/>
      <point x="552" y="520"/>
      <point x="552" y="376" type="curve" smooth="yes"/>
      <point x="552" y="294"/>
      <point x="470" y="184"/>
      <point x="314" y="184" type="curve" smooth="yes"/>
      <point x="102" y="184"/>
      <point x="0" y="308"/>
      <point x="0" y="462" type="curve" smooth="yes"/>
      <point x="0" y="652"/>
      <point x="130" y="784"/>
      <point x="366" y="784" type="curve" smooth="yes"/>
      <point x="564" y="784"/>
      <point x="752" y="668"/>
      <point x="752" y="394" type="curve" smooth="yes"/>
      <point x="752" y="194"/>
      <point x="648" y="0"/>
      <point x="320" y="0" type="curve" smooth="yes"/>
      <point x="192" y="0"/>
      <point x="40" y="28"/>
      <point x="40" y="88" type="curve" smooth="yes"/>
      <point x="40" y="122"/>
      <point x="62" y="138"/>
      <point x="96" y="138" type="curve" smooth="yes"/>
      <point x="144" y="138"/>
      <point x="172" y="98"/>
      <point x="320" y="98" type="curve" smooth="yes"/>
      <point x="542" y="98"/>
      <point x="650" y="224"/>
      <point x="650" y="398" type="curve" smooth="yes"/>
      <point x="650" y="540"/>
      <point x="524" y="692"/>
      <point x="366" y="692" type="curve" smooth="yes"/>
      <point x="172" y="692"/>
      <point x="102" y="574"/>
      <point x="102" y="462" type="curve" smooth="yes"/>
      <point x="102" y="348"/>
      <point x="196" y="276"/>
      <point x="320" y="276" type="curve" smooth="yes"/>
      <point x="436" y="276"/>
      <point x="454" y="340"/>
      <point x="454" y="408" type="curve" smooth="yes"/>
      <point x="454" y="474"/>
      <point x="404" y="516"/>
      <point x="336" y="516" type="curve" smooth="yes"/>
      <point x="296" y="516"/>
      <point x="280" y="494"/>
      <point x="280" y="464" type="curve" smooth="yes"/>
      <point x="280" y="424"/>
      <point x="362" y="438"/>
      <point x="362" y="398" type="curve" smooth="yes"/>
      <point x="362" y="374"/>
      <point x="350" y="356"/>
    </contour>
  </outline>
</glyph>
<glyph name="ain-ar.init" format="2">
  <advance width="468"/>
  <outline>
    <contour>
      <point x="0" y="0" type="line"/>
      <point x="420" y="0" type="line"/>
      <point x="436" y="16" type="line"/>
      <point x="436" y="88" type="line"/>
      <point x="420" y="104" type="line"/>
      <point x="276" y="104" type="line" smooth="yes"/>
      <point x="188" y="104"/>
      <point x="148" y="156"/>
      <point x="148" y="220" type="curve" smooth="yes"/>
      <point x="148" y="276"/>
      <point x="188" y="316"/>
      <point x="244" y="316" type="curve" smooth="yes"/>
      <point x="300" y="316"/>
      <point x="340" y="276"/>
      <point x="340" y="220" type="curve"/>
      <point x="356" y="204" type="line"/>
      <point x="420" y="204" type="line"/>
      <point x="436" y="220" type="line"/>
      <point x="436" y="348"/>
      <point x="340" y="424"/>
      <point x="244" y="424" type="curve" smooth="yes"/>
      <point x="148" y="424"/>
      <point x="52" y="348"/>
      <point x="52" y="220" type="curve" smooth="yes"/>
      <point x="52" y="172"/>
      <point x="80" y="128"/>
      <point x="100" y="112" type="curve"/>
      <point x="100" y="104" type="line"/>
      <point x="0" y="104" type="line"/>
      <point x="-16" y="88" type="line"/>
      <point x="-16" y="16" type="line"/>
    </contour>
  </outline>
</glyph>
<glyph name="ain-ar.medi" format="2">
	<advance width="608"/>
	<outline>
		<contour>
			<point x="608" y="0" type="line"/>
			<point x="440" y="0" type="line" smooth="yes"/>
			<point x="392" y="0"/>
			<point x="352" y="0"/>
			<point x="308" y="32" type="curve"/>
			<point x="300" y="32" type="line"/>
			<point x="256" y="0"/>
			<point x="216" y="0"/>
			<point x="168" y="0" type="curve" smooth="yes"/>
			<point x="0" y="0" type="line"/>
			<point x="-16" y="16" type="line"/>
			<point x="-16" y="88" type="line"/>
			<point x="0" y="104" type="line"/>
			<point x="192" y="104" type="line"/>
			<point x="200" y="112" type="line"/>
			<point x="200" y="120" type="line"/>
			<point x="116" y="226" type="line" smooth="yes"/>
			<point x="100" y="246"/>
			<point x="80" y="268"/>
			<point x="80" y="312" type="curve" smooth="yes"/>
			<point x="80" y="384"/>
			<point x="136" y="432"/>
			<point x="224" y="432" type="curve" smooth="yes"/>
			<point x="384" y="432" type="line" smooth="yes"/>
			<point x="472" y="432"/>
			<point x="528" y="384"/>
			<point x="528" y="312" type="curve" smooth="yes"/>
			<point x="528" y="268"/>
			<point x="508" y="246"/>
			<point x="492" y="226" type="curve" smooth="yes"/>
			<point x="408" y="120" type="line"/>
			<point x="408" y="112" type="line"/>
			<point x="416" y="104" type="line"/>
			<point x="608" y="104" type="line"/>
		</contour>
		<contour>
			<point x="308" y="120" type="line"/>
			<point x="400" y="238" type="line" smooth="yes"/>
			<point x="418" y="262"/>
			<point x="432" y="280"/>
			<point x="432" y="296" type="curve" smooth="yes"/>
			<point x="432" y="314"/>
			<point x="418" y="328"/>
			<point x="400" y="328" type="curve" smooth="yes"/>
			<point x="208" y="328" type="line" smooth="yes"/>
			<point x="190" y="328"/>
			<point x="176" y="314"/>
			<point x="176" y="296" type="curve" smooth="yes"/>
			<point x="176" y="280"/>
			<point x="192" y="260"/>
			<point x="208" y="238" type="curve" smooth="yes"/>
			<point x="300" y="120" type="line"/>
		</contour>
	</outline>
</glyph>
<glyph name="behDotless-ar.init" format="2">
  <advance width="288"/>
  <anchor x="144" y="432" name="top"/>
  <anchor x="0" y="16" name="bottom"/>
  <anchor x="144" y="448" name="topDots"/>
  <anchor x="0" y="0" name="bottomDots"/>
  <outline>
    <contour>
      <point x="0" y="0" type="line"/>
      <point x="128" y="0"/>
      <point x="192" y="72"/>
      <point x="192" y="200" type="curve" smooth="yes"/>
      <point x="192" y="416" type="line"/>
      <point x="176" y="432" type="line"/>
      <point x="112" y="432" type="line"/>
      <point x="96" y="416" type="line"/>
      <point x="96" y="200" type="line" smooth="yes"/>
      <point x="96" y="136"/>
      <point x="64" y="104"/>
      <point x="0" y="104" type="curve"/>
      <point x="-16" y="88" type="line"/>
      <point x="-16" y="16" type="line"/>
    </contour>
  </outline>
</glyph>
<glyph name="dotabove-ar" format="2">
  <advance width="300"/>
  <anchor x="152" y="812" name="top"/>
  <anchor x="152" y="576" name="_topDots"/>
  <outline>
    <contour>
      <point x="152" y="688" type="curve" smooth="yes"/>
      <point x="196" y="688"/>
      <point x="232" y="724"/>
      <point x="232" y="768" type="curve" smooth="yes"/>
      <point x="232" y="812"/>
      <point x="196" y="848"/>
      <point x="152" y="848" type="curve" smooth="yes"/>
      <point x="108" y="848"/>
      <point x="72" y="812"/>
      <point x="72" y="768" type="curve" smooth="yes"/>
      <point x="72" y="724"/>
      <point x="108" y="688"/>
    </contour>
  </outline>
</glyph>
<glyph name="dotbelow-ar" format="2">
	<advance width="244"/>
	<outline>
		<contour>
			<point x="122" y="-272" type="curve" smooth="yes"/>
			<point x="166" y="-272"/>
			<point x="202" y="-236"/>
			<point x="202" y="-192" type="curve" smooth="yes"/>
			<point x="202" y="-148"/>
			<point x="166" y="-112"/>
			<point x="122" y="-112" type="curve" smooth="yes"/>
			<point x="78" y="-112"/>
			<point x="42" y="-148"/>
			<point x="42" y="-192" type="curve" smooth="yes"/>
			<point x="42" y="-236"/>
			<point x="78" y="-272"/>
		</contour>
	</outline>
	<anchor name="_bottomDots" x="124" y="0"/>
	<anchor name="bottom" x="124" y="-306"/>
</glyph>
<glyph name="fehDotless-ar.init" format="2">
	<advance width="482"/>
	<outline>
		<contour>
			<point x="224" y="488" type="curve" smooth="yes"/>
			<point x="168" y="488"/>
			<point x="122" y="464"/>
			<point x="122" y="408" type="curve" smooth="yes"/>
			<point x="122" y="352"/>
			<point x="170" y="320"/>
			<point x="226" y="320" type="curve" smooth="yes"/>
			<point x="346" y="320" type="line"/>
			<point x="354" y="326" type="line"/>
			<point x="354" y="342" type="line" smooth="yes"/>
			<point x="354" y="406"/>
			<point x="320" y="488"/>
		</contour>
		<contour>
			<point x="258" y="0" type="curve" smooth="yes"/>
			<point x="0" y="0" type="line"/>
			<point x="-16" y="16" type="line"/>
			<point x="-16" y="88" type="line"/>
			<point x="0" y="104" type="line"/>
			<point x="258" y="104" type="line" smooth="yes"/>
			<point x="314" y="104"/>
			<point x="354" y="156"/>
			<point x="354" y="212" type="curve" smooth="yes"/>
			<point x="354" y="220" type="line"/>
			<point x="346" y="228" type="line"/>
			<point x="226" y="228" type="line" smooth="yes"/>
			<point x="116" y="228"/>
			<point x="24" y="286"/>
			<point x="24" y="408" type="curve" smooth="yes"/>
			<point x="24" y="536"/>
			<point x="96" y="592"/>
			<point x="224" y="592" type="curve" smooth="yes"/>
			<point x="384" y="592"/>
			<point x="450" y="470"/>
			<point x="450" y="342" type="curve" smooth="yes"/>
			<point x="450" y="208" type="line" smooth="yes"/>
			<point x="450" y="80"/>
			<point x="378" y="0"/>
		</contour>
	</outline>
	<anchor name="top" x="224" y="720"/>
	<anchor name="topDots" x="224" y="576"/>
</glyph>
<glyph name="hah-ar.init" format="2">
  <advance width="668"/>
  <anchor x="324" y="0" name="bottomDots"/>
  <anchor x="326" y="574" name="top"/>
  <anchor x="326" y="530" name="topDots"/>
  <anchor x="324" y="32" name="bottom"/>
  <outline>
    <contour>
      <point x="64" y="0" type="curve" smooth="yes"/>
      <point x="0" y="0" type="line"/>
      <point x="-16" y="16" type="line"/>
      <point x="-16" y="88" type="line"/>
      <point x="0" y="104" type="line"/>
      <point x="64" y="104" type="line" smooth="yes"/>
      <point x="200" y="104"/>
      <point x="252" y="210"/>
      <point x="412" y="210" type="curve" smooth="yes"/>
      <point x="476" y="210" type="line" smooth="yes"/>
      <point x="532" y="210"/>
      <point x="572" y="250"/>
      <point x="572" y="306" type="curve" smooth="yes"/>
      <point x="572" y="362"/>
      <point x="532" y="402"/>
      <point x="476" y="402" type="curve" smooth="yes"/>
      <point x="160" y="402" type="line" smooth="yes"/>
      <point x="120" y="402"/>
      <point x="96" y="378"/>
      <point x="96" y="338" type="curve" smooth="yes"/>
      <point x="96" y="322" type="line"/>
      <point x="80" y="306" type="line"/>
      <point x="16" y="306" type="line"/>
      <point x="0" y="322" type="line"/>
      <point x="0" y="338" type="line" smooth="yes"/>
      <point x="0" y="450"/>
      <point x="60" y="506"/>
      <point x="172" y="506" type="curve" smooth="yes"/>
      <point x="476" y="506" type="line" smooth="yes"/>
      <point x="588" y="506"/>
      <point x="668" y="418"/>
      <point x="668" y="306" type="curve" smooth="yes"/>
      <point x="668" y="194"/>
      <point x="588" y="106"/>
      <point x="476" y="106" type="curve" smooth="yes"/>
      <point x="412" y="106" type="line" smooth="yes"/>
      <point x="294" y="106"/>
      <point x="244" y="0"/>
    </contour>
  </outline>
</glyph>
<glyph name="kaf-ar.fina" format="2">
  <advance width="868"/>
  <outline>
    <contour>
      <point x="868" y="0" type="curve"/>
      <point x="868" y="104" type="line"/>
      <point x="804" y="104"/>
      <point x="772" y="136"/>
      <point x="772" y="200" type="curve" smooth="yes"/>
      <point x="772" y="752" type="line"/>
      <point x="756" y="768" type="line"/>
      <point x="692" y="768" type="line"/>
      <point x="676" y="752" type="line"/>
      <point x="676" y="200" type="line" smooth="yes"/>
      <point x="676" y="136"/>
      <point x="644" y="104"/>
      <point x="580" y="104" type="curve" smooth="yes"/>
      <point x="222" y="104" type="line" smooth="yes"/>
      <point x="158" y="104"/>
      <point x="126" y="136"/>
      <point x="126" y="200" type="curve" smooth="yes"/>
      <point x="126" y="304" type="line"/>
      <point x="110" y="320" type="line"/>
      <point x="46" y="320" type="line"/>
      <point x="30" y="304" type="line"/>
      <point x="30" y="200" type="line" smooth="yes"/>
      <point x="30" y="64"/>
      <point x="86" y="0"/>
      <point x="222" y="0" type="curve" smooth="yes"/>
      <point x="580" y="0" type="line" smooth="yes"/>
      <point x="612" y="0"/>
      <point x="688" y="0"/>
      <point x="720" y="64" type="curve"/>
      <point x="728" y="64" type="line"/>
      <point x="760" y="0"/>
      <point x="836" y="0"/>
    </contour>
    <contour>
      <point x="296" y="256" type="line"/>
      <point x="454" y="256" type="line" smooth="yes"/>
      <point x="518" y="256"/>
      <point x="558" y="288"/>
      <point x="558" y="352" type="curve" smooth="yes"/>
      <point x="558" y="416"/>
      <point x="518" y="448"/>
      <point x="454" y="448" type="curve" smooth="yes"/>
      <point x="376" y="448" type="line" smooth="yes"/>
      <point x="358" y="448"/>
      <point x="340" y="462"/>
      <point x="340" y="480" type="curve" smooth="yes"/>
      <point x="340" y="498"/>
      <point x="358" y="512"/>
      <point x="376" y="512" type="curve" smooth="yes"/>
      <point x="510" y="512" type="line"/>
      <point x="526" y="528" type="line"/>
      <point x="526" y="560" type="line"/>
      <point x="510" y="576" type="line"/>
      <point x="384" y="576" type="line" smooth="yes"/>
      <point x="324" y="576"/>
      <point x="280" y="548"/>
      <point x="280" y="480" type="curve" smooth="yes"/>
      <point x="280" y="412"/>
      <point x="324" y="384"/>
      <point x="384" y="384" type="curve" smooth="yes"/>
      <point x="462" y="384" type="line" smooth="yes"/>
      <point x="480" y="384"/>
      <point x="494" y="370"/>
      <point x="494" y="352" type="curve" smooth="yes"/>
      <point x="494" y="334"/>
      <point x="480" y="320"/>
      <point x="462" y="320" type="curve" smooth="yes"/>
      <point x="296" y="320" type="line"/>
      <point x="280" y="304" type="line"/>
      <point x="280" y="272" type="line"/>
    </contour>
  </outline>
</glyph>
<glyph name="lam-ar.init" format="2">
	<advance width="288"/>
	<outline>
		<contour>
			<point x="0" y="0" type="line"/>
			<point x="128" y="0"/>
			<point x="192" y="72"/>
			<point x="192" y="200" type="curve" smooth="yes"/>
			<point x="192" y="752" type="line"/>
			<point x="176" y="768" type="line"/>
			<point x="112" y="768" type="line"/>
			<point x="96" y="752" type="line"/>
			<point x="96" y="200" type="line" smooth="yes"/>
			<point x="96" y="144"/>
			<point x="56" y="104"/>
			<point x="0" y="104" type="curve"/>
			<point x="-16" y="88" type="line"/>
			<point x="-16" y="16" type="line"/>
		</contour>
	</outline>
</glyph>
<glyph name="reh-ar.fina" format="2">
  <advance width="600"/>
  <outline>
    <contour>
      <point x="600" y="0" type="curve"/>
      <point x="600" y="104" type="line"/>
      <point x="536" y="104"/>
      <point x="504" y="136"/>
      <point x="504" y="200" type="curve" smooth="yes"/>
      <point x="504" y="416" type="line"/>
      <point x="488" y="432" type="line"/>
      <point x="424" y="432" type="line"/>
      <point x="408" y="416" type="line"/>
      <point x="408" y="24" type="line" smooth="yes"/>
      <point x="408" y="-104"/>
      <point x="360" y="-152"/>
      <point x="232" y="-152" type="curve" smooth="yes"/>
      <point x="48" y="-152" type="line"/>
      <point x="32" y="-168" type="line"/>
      <point x="32" y="-240" type="line"/>
      <point x="48" y="-256" type="line"/>
      <point x="252" y="-256" type="line" smooth="yes"/>
      <point x="428" y="-256"/>
      <point x="508" y="-176"/>
      <point x="508" y="0" type="curve" smooth="yes"/>
      <point x="508" y="28" type="line"/>
      <point x="516" y="36" type="line"/>
      <point x="524" y="36" type="line"/>
      <point x="536" y="8"/>
      <point x="552" y="0"/>
    </contour>
  </outline>
</glyph>
<glyph name="seen-ar.init" format="2">
  <advance width="864"/>
  <anchor x="432" y="0" name="bottom"/>
  <anchor x="432" y="400" name="top"/>
  <anchor x="432" y="432" name="topDots"/>
  <outline>
    <contour>
      <point x="0" y="0" type="curve"/>
      <point x="-16" y="16" type="line"/>
      <point x="-16" y="88" type="line"/>
      <point x="0" y="104" type="line"/>
      <point x="64" y="104"/>
      <point x="96" y="136"/>
      <point x="96" y="200" type="curve" smooth="yes"/>
      <point x="96" y="416" type="line"/>
      <point x="112" y="432" type="line"/>
      <point x="176" y="432" type="line"/>
      <point x="192" y="416" type="line"/>
      <point x="192" y="184" type="line" smooth="yes"/>
      <point x="192" y="128"/>
      <point x="232" y="88"/>
      <point x="288" y="88" type="curve" smooth="yes"/>
      <point x="344" y="88"/>
      <point x="384" y="128"/>
      <point x="384" y="184" type="curve" smooth="yes"/>
      <point x="384" y="416" type="line"/>
      <point x="400" y="432" type="line"/>
      <point x="464" y="432" type="line"/>
      <point x="480" y="416" type="line"/>
      <point x="480" y="184" type="line" smooth="yes"/>
      <point x="480" y="128"/>
      <point x="520" y="88"/>
      <point x="576" y="88" type="curve" smooth="yes"/>
      <point x="632" y="88"/>
      <point x="672" y="128"/>
      <point x="672" y="184" type="curve" smooth="yes"/>
      <point x="672" y="416" type="line"/>
      <point x="688" y="432" type="line"/>
      <point x="752" y="432" type="line"/>
      <point x="768" y="416" type="line"/>
      <point x="768" y="184" type="line" smooth="yes"/>
      <point x="768" y="56"/>
      <point x="704" y="-16"/>
      <point x="576" y="-16" type="curve" smooth="yes"/>
      <point x="520" y="-16"/>
      <point x="468" y="8"/>
      <point x="436" y="64" type="curve"/>
      <point x="428" y="64" type="line"/>
      <point x="396" y="8"/>
      <point x="352" y="-16"/>
      <point x="288" y="-16" type="curve" smooth="yes"/>
      <point x="224" y="-16"/>
      <point x="180" y="8"/>
      <point x="148" y="64" type="curve"/>
      <point x="140" y="64" type="line"/>
      <point x="108" y="8"/>
      <point x="56" y="0"/>
    </contour>
  </outline>
</glyph>
<glyph name="teh-ar.init" format="2">
	<advance width="372"/>
	<outline>
		<contour>
			<point x="84" y="0" type="line"/>
			<point x="212" y="0"/>
			<point x="276" y="76"/>
			<point x="276" y="204" type="curve" smooth="yes"/>
			<point x="276" y="416" type="line"/>
			<point x="260" y="432" type="line"/>
			<point x="196" y="432" type="line"/>
			<point x="180" y="416" type="line"/>
			<point x="180" y="204" type="line" smooth="yes"/>
			<point x="180" y="140"/>
			<point x="148" y="108"/>
			<point x="84" y="108" type="curve"/>
			<point x="0" y="108" type="line"/>
			<point x="-16" y="92" type="line"/>
			<point x="-16" y="16" type="line"/>
			<point x="0" y="0" type="line"/>
		</contour>
		<component base="twodotshorizontalabove-ar" xOffset="76" yOffset="-128"/>
	</outline>
	<anchor name="top" x="228" y="432"/>
	<anchor name="bottom" x="84" y="16"/>
	<anchor name="topDots" x="228" y="472"/>
	<anchor name="bottomDots" x="84" y="0"/>
</glyph>
<glyph name="twodotshorizontalabove-ar" format="2">
	<advance width="300"/>
	<outline>
		<contour>
			<point x="24" y="688" type="curve" smooth="yes"/>
			<point x="68" y="688"/>
			<point x="104" y="724"/>
			<point x="104" y="768" type="curve" smooth="yes"/>
			<point x="104" y="812"/>
			<point x="68" y="848"/>
			<point x="24" y="848" type="curve" smooth="yes"/>
			<point x="-20" y="848"/>
			<point x="-56" y="812"/>
			<point x="-56" y="768" type="curve" smooth="yes"/>
			<point x="-56" y="724"/>
			<point x="-20" y="688"/>
		</contour>
		<contour>
			<point x="280" y="688" type="curve" smooth="yes"/>
			<point x="324" y="688"/>
			<point x="360" y="724"/>
			<point x="360" y="768" type="curve" smooth="yes"/>
			<point x="360" y="812"/>
			<point x="324" y="848"/>
			<point x="280" y="848" type="curve" smooth="yes"/>
			<point x="236" y="848"/>
			<point x="200" y="812"/>
			<point x="200" y="768" type="curve" smooth="yes"/>
			<point x="200" y="724"/>
			<point x="236" y="688"/>
		</contour>
	</outline>
	<anchor name="top" x="152" y="800"/>
	<anchor name="_topDots" x="152" y="576"/>
</glyph>
<glyph name="yabaha" format="2">
	<advance width="1024"/>
	<outline>
		<contour>
			<point x="956" y="346" type="curve" smooth="yes"/>
			<point x="934" y="346"/>
			<point x="916" y="359"/>
			<point x="916" y="391" type="curve" smooth="yes"/>
			<point x="916" y="423"/>
			<point x="928" y="571"/>
			<point x="928" y="620" type="curve" smooth="yes"/>
			<point x="928" y="632"/>
			<point x="929" y="636"/>
			<point x="939" y="651" type="curve" smooth="yes"/>
			<point x="948" y="664"/>
			<point x="951" y="669"/>
			<point x="954" y="669" type="curve" smooth="yes"/>
			<point x="956" y="669"/>
			<point x="957" y="668"/>
			<point x="957" y="665" type="curve" smooth="yes"/>
			<point x="957" y="638"/>
			<point x="945" y="501"/>
			<point x="945" y="451" type="curve" smooth="yes"/>
			<point x="945" y="424"/>
			<point x="954" y="410"/>
			<point x="971" y="410" type="curve" smooth="yes"/>
			<point x="986" y="410"/>
			<point x="994" y="423"/>
			<point x="1004" y="441" type="curve" smooth="yes"/>
			<point x="1008" y="448"/>
			<point x="1009" y="451"/>
			<point x="1012" y="451" type="curve" smooth="yes"/>
			<point x="1014" y="451"/>
			<point x="1015" y="449"/>
			<point x="1015" y="446" type="curve" smooth="yes"/>
			<point x="1015" y="428"/>
			<point x="1000" y="346"/>
		</contour>
		<contour>
			<point x="441" y="116" type="curve" smooth="yes"/>
			<point x="437" y="116"/>
			<point x="432" y="119"/>
			<point x="413" y="132" type="curve" smooth="yes"/>
			<point x="389" y="148"/>
			<point x="386" y="150"/>
			<point x="386" y="154" type="curve" smooth="yes"/>
			<point x="386" y="159"/>
			<point x="390" y="162"/>
			<point x="403" y="179" type="curve" smooth="yes"/>
			<point x="416" y="195"/>
			<point x="420" y="199"/>
			<point x="425" y="199" type="curve" smooth="yes"/>
			<point x="429" y="199"/>
			<point x="432" y="198"/>
			<point x="446" y="187" type="curve" smooth="yes"/>
			<point x="465" y="172"/>
			<point x="470" y="168"/>
			<point x="473" y="168" type="curve" smooth="yes"/>
			<point x="475" y="168"/>
			<point x="477" y="171"/>
			<point x="488" y="186" type="curve" smooth="yes"/>
			<point x="499" y="201"/>
			<point x="501" y="203"/>
			<point x="505" y="203" type="curve" smooth="yes"/>
			<point x="509" y="203"/>
			<point x="514" y="200"/>
			<point x="532" y="186" type="curve" smooth="yes"/>
			<point x="554" y="169"/>
			<point x="556" y="165"/>
			<point x="556" y="161" type="curve" smooth="yes"/>
			<point x="556" y="156"/>
			<point x="553" y="153"/>
			<point x="541" y="138" type="curve" smooth="yes"/>
			<point x="528" y="122"/>
			<point x="525" y="120"/>
			<point x="520" y="120" type="curve" smooth="yes"/>
			<point x="516" y="120"/>
			<point x="512" y="123"/>
			<point x="496" y="135" type="curve" smooth="yes"/>
			<point x="482" y="145"/>
			<point x="478" y="150"/>
			<point x="475" y="150" type="curve" smooth="yes"/>
			<point x="473" y="150"/>
			<point x="470" y="145"/>
			<point x="459" y="131" type="curve" smooth="yes"/>
			<point x="449" y="119"/>
			<point x="445" y="116"/>
		</contour>
		<contour>
			<point x="764" y="350" type="curve" smooth="yes"/>
			<point x="761" y="350"/>
			<point x="760" y="352"/>
			<point x="760" y="356" type="curve" smooth="yes"/>
			<point x="760" y="365"/>
			<point x="766" y="374"/>
			<point x="770" y="434" type="curve" smooth="yes"/>
			<point x="774" y="496"/>
			<point x="781" y="607"/>
			<point x="784" y="621" type="curve" smooth="yes"/>
			<point x="787" y="636"/>
			<point x="793" y="644"/>
			<point x="800" y="656" type="curve" smooth="yes"/>
			<point x="810" y="671"/>
			<point x="814" y="679"/>
			<point x="817" y="679" type="curve" smooth="yes"/>
			<point x="819" y="679"/>
			<point x="820" y="678"/>
			<point x="820" y="675" type="curve" smooth="yes"/>
			<point x="820" y="669"/>
			<point x="818" y="658"/>
			<point x="816" y="638" type="curve" smooth="yes"/>
			<point x="810" y="580"/>
			<point x="803" y="511"/>
			<point x="796" y="441" type="curve" smooth="yes"/>
			<point x="791" y="387"/>
			<point x="773" y="350"/>
		</contour>
		<contour>
			<point x="538" y="344" type="curve" smooth="yes"/>
			<point x="525" y="344"/>
			<point x="512" y="365"/>
			<point x="512" y="377" type="curve" smooth="yes"/>
			<point x="512" y="400"/>
			<point x="524" y="525"/>
			<point x="529" y="595" type="curve" smooth="yes"/>
			<point x="530" y="608"/>
			<point x="532" y="618"/>
			<point x="548" y="643" type="curve" smooth="yes"/>
			<point x="558" y="658"/>
			<point x="560" y="665"/>
			<point x="563" y="665" type="curve" smooth="yes"/>
			<point x="565" y="665"/>
			<point x="567" y="664"/>
			<point x="567" y="660" type="curve" smooth="yes"/>
			<point x="567" y="655"/>
			<point x="565" y="647"/>
			<point x="557" y="576" type="curve" smooth="yes"/>
			<point x="548" y="491" type="line" smooth="yes"/>
			<point x="545" y="467"/>
			<point x="533" y="425"/>
			<point x="525" y="398" type="curve" smooth="yes"/>
			<point x="523" y="392"/>
			<point x="524" y="388"/>
			<point x="529" y="388" type="curve" smooth="yes"/>
			<point x="570" y="388"/>
			<point x="589" y="400"/>
			<point x="595" y="471" type="curve" smooth="yes"/>
			<point x="610" y="640" type="line" smooth="yes"/>
			<point x="611" y="649"/>
			<point x="612" y="655"/>
			<point x="617" y="662" type="curve" smooth="yes"/>
			<point x="634" y="684"/>
			<point x="639" y="694"/>
			<point x="643" y="694" type="curve" smooth="yes"/>
			<point x="646" y="694"/>
			<point x="647" y="692"/>
			<point x="647" y="689" type="curve" smooth="yes"/>
			<point x="647" y="683"/>
			<point x="643" y="678"/>
			<point x="638" y="618" type="curve" smooth="yes"/>
			<point x="626" y="485" type="line" smooth="yes"/>
			<point x="618" y="395"/>
			<point x="573" y="344"/>
		</contour>
		<contour>
			<point x="363" y="0" type="curve" smooth="yes"/>
			<point x="221" y="0"/>
			<point x="160" y="56"/>
			<point x="160" y="126" type="curve" smooth="yes"/>
			<point x="160" y="163"/>
			<point x="166" y="213"/>
			<point x="166" y="262" type="curve" smooth="yes"/>
			<point x="166" y="266"/>
			<point x="165" y="268"/>
			<point x="159" y="268" type="curve" smooth="yes"/>
			<point x="104" y="268"/>
			<point x="4" y="273"/>
			<point x="4" y="306" type="curve" smooth="yes"/>
			<point x="4" y="353"/>
			<point x="32" y="402"/>
			<point x="74" y="425" type="curve" smooth="yes"/>
			<point x="118" y="449" type="line" smooth="yes"/>
			<point x="127" y="454"/>
			<point x="129" y="458"/>
			<point x="136" y="474" type="curve" smooth="yes"/>
			<point x="140" y="482"/>
			<point x="179" y="574"/>
			<point x="218" y="574" type="curve" smooth="yes"/>
			<point x="227" y="574"/>
			<point x="237" y="566"/>
			<point x="241" y="559" type="curve" smooth="yes"/>
			<point x="244" y="554"/>
			<point x="245" y="553"/>
			<point x="246" y="553" type="curve" smooth="yes"/>
			<point x="248" y="553"/>
			<point x="250" y="555"/>
			<point x="256" y="562" type="curve" smooth="yes"/>
			<point x="302" y="615"/>
			<point x="382" y="659"/>
			<point x="416" y="659" type="curve" smooth="yes"/>
			<point x="422" y="659"/>
			<point x="424" y="657"/>
			<point x="424" y="653" type="curve" smooth="yes"/>
			<point x="424" y="637"/>
			<point x="398" y="596"/>
			<point x="386" y="596" type="curve" smooth="yes"/>
			<point x="379" y="596"/>
			<point x="375" y="598"/>
			<point x="366" y="598" type="curve" smooth="yes"/>
			<point x="326" y="598"/>
			<point x="300" y="575"/>
			<point x="278" y="553" type="curve" smooth="yes"/>
			<point x="276" y="551"/>
			<point x="275" y="550"/>
			<point x="275" y="549" type="curve" smooth="yes"/>
			<point x="275" y="548"/>
			<point x="275" y="547"/>
			<point x="277" y="547" type="curve" smooth="yes"/>
			<point x="279" y="547"/>
			<point x="288" y="551"/>
			<point x="300" y="551" type="curve" smooth="yes"/>
			<point x="326" y="551"/>
			<point x="332" y="529"/>
			<point x="332" y="514" type="curve" smooth="yes"/>
			<point x="332" y="488"/>
			<point x="279" y="432"/>
			<point x="260" y="432" type="curve" smooth="yes"/>
			<point x="237" y="432"/>
			<point x="190" y="430"/>
			<point x="175" y="426" type="curve" smooth="yes"/>
			<point x="114" y="410"/>
			<point x="49" y="381"/>
			<point x="49" y="361" type="curve" smooth="yes"/>
			<point x="49" y="341"/>
			<point x="88" y="328"/>
			<point x="167" y="328" type="curve" smooth="yes"/>
			<point x="173" y="328"/>
			<point x="174" y="329"/>
			<point x="174" y="336" type="curve" smooth="yes"/>
			<point x="174" y="357" type="line" smooth="yes"/>
			<point x="174" y="368"/>
			<point x="176" y="372"/>
			<point x="180" y="378" type="curve" smooth="yes"/>
			<point x="201" y="410"/>
			<point x="203" y="413"/>
			<point x="205" y="413" type="curve" smooth="yes"/>
			<point x="207" y="413"/>
			<point x="208" y="412"/>
			<point x="208" y="409" type="curve" smooth="yes"/>
			<point x="208" y="400"/>
			<point x="205" y="364"/>
			<point x="205" y="334" type="curve" smooth="yes"/>
			<point x="205" y="330"/>
			<point x="206" y="328"/>
			<point x="211" y="328" type="curve" smooth="yes"/>
			<point x="708" y="328"/>
			<point x="594" y="334"/>
			<point x="909" y="338" type="curve" smooth="yes"/>
			<point x="985" y="339"/>
			<point x="999" y="330"/>
			<point x="999" y="317" type="curve" smooth="yes"/>
			<point x="999" y="304"/>
			<point x="989" y="298"/>
			<point x="971" y="298" type="curve" smooth="yes"/>
			<point x="845" y="295"/>
			<point x="570" y="267"/>
			<point x="204" y="268" type="curve" smooth="yes"/>
			<point x="199" y="268"/>
			<point x="197" y="267"/>
			<point x="197" y="263" type="curve" smooth="yes"/>
			<point x="197" y="186" type="line" smooth="yes"/>
			<point x="197" y="85"/>
			<point x="266" y="60"/>
			<point x="394" y="60" type="curve" smooth="yes"/>
			<point x="537" y="60"/>
			<point x="596" y="81"/>
			<point x="646" y="98" type="curve" smooth="yes"/>
			<point x="655" y="101"/>
			<point x="658" y="103"/>
			<point x="660" y="107" type="curve" smooth="yes"/>
			<point x="686" y="159"/>
			<point x="727" y="230"/>
			<point x="766" y="230" type="curve" smooth="yes"/>
			<point x="778" y="230"/>
			<point x="785" y="223"/>
			<point x="789" y="211" type="curve" smooth="yes"/>
			<point x="791" y="205"/>
			<point x="791" y="204"/>
			<point x="793" y="204" type="curve" smooth="yes"/>
			<point x="795" y="204"/>
			<point x="797" y="206"/>
			<point x="805" y="214" type="curve" smooth="yes"/>
			<point x="831" y="240"/>
			<point x="881" y="291"/>
			<point x="980" y="291" type="curve" smooth="yes"/>
			<point x="990" y="291"/>
			<point x="992" y="289"/>
			<point x="992" y="286" type="curve" smooth="yes"/>
			<point x="992" y="277"/>
			<point x="960" y="242"/>
			<point x="948" y="242" type="curve" smooth="yes"/>
			<point x="939" y="242"/>
			<point x="936" y="243"/>
			<point x="922" y="243" type="curve" smooth="yes"/>
			<point x="896" y="243"/>
			<point x="865" y="233"/>
			<point x="831" y="210" type="curve" smooth="yes"/>
			<point x="822" y="204"/>
			<point x="818" y="200"/>
			<point x="818" y="198" type="curve" smooth="yes"/>
			<point x="818" y="197"/>
			<point x="819" y="197"/>
			<point x="820" y="197" type="curve" smooth="yes"/>
			<point x="822" y="197"/>
			<point x="830" y="200"/>
			<point x="844" y="200" type="curve" smooth="yes"/>
			<point x="862" y="200"/>
			<point x="880" y="193"/>
			<point x="880" y="170" type="curve" smooth="yes"/>
			<point x="880" y="137"/>
			<point x="825" y="77"/>
			<point x="790" y="77" type="curve" smooth="yes"/>
			<point x="777" y="77"/>
			<point x="763" y="78"/>
			<point x="749" y="78" type="curve" smooth="yes"/>
			<point x="679" y="78"/>
			<point x="599" y="0"/>
		</contour>
		<contour>
			<point x="904" y="10" type="curve" smooth="yes"/>
			<point x="898" y="10"/>
			<point x="893" y="13"/>
			<point x="876" y="26" type="curve" smooth="yes"/>
			<point x="862" y="37"/>
			<point x="852" y="43"/>
			<point x="852" y="48" type="curve" smooth="yes"/>
			<point x="852" y="52"/>
			<point x="857" y="57"/>
			<point x="873" y="71" type="curve" smooth="yes"/>
			<point x="884" y="80"/>
			<point x="891" y="87"/>
			<point x="896" y="87" type="curve" smooth="yes"/>
			<point x="901" y="87"/>
			<point x="907" y="83"/>
			<point x="923" y="70" type="curve" smooth="yes"/>
			<point x="936" y="59"/>
			<point x="945" y="54"/>
			<point x="945" y="49" type="curve" smooth="yes"/>
			<point x="945" y="45"/>
			<point x="940" y="38"/>
			<point x="929" y="27" type="curve" smooth="yes"/>
			<point x="915" y="14"/>
			<point x="909" y="10"/>
		</contour>
		<contour>
			<point x="69" y="133" type="curve" smooth="yes"/>
			<point x="36" y="133"/>
			<point x="35" y="134"/>
			<point x="35" y="136" type="curve" smooth="yes"/>
			<point x="35" y="138"/>
			<point x="37" y="138"/>
			<point x="45" y="141" type="curve" smooth="yes"/>
			<point x="91" y="158" type="line" smooth="yes"/>
			<point x="97" y="160"/>
			<point x="99" y="161"/>
			<point x="99" y="163" type="curve" smooth="yes"/>
			<point x="99" y="165"/>
			<point x="97" y="166"/>
			<point x="91" y="169" type="curve" smooth="yes"/>
			<point x="84" y="173"/>
			<point x="78" y="176"/>
			<point x="78" y="187" type="curve" smooth="yes"/>
			<point x="78" y="210"/>
			<point x="99" y="234"/>
			<point x="118" y="234" type="curve" smooth="yes"/>
			<point x="132" y="234"/>
			<point x="135" y="229"/>
			<point x="135" y="221" type="curve" smooth="yes"/>
			<point x="135" y="212"/>
			<point x="124" y="198"/>
			<point x="118" y="198" type="curve" smooth="yes"/>
			<point x="115" y="198"/>
			<point x="109" y="204"/>
			<point x="105" y="204" type="curve" smooth="yes"/>
			<point x="101" y="204"/>
			<point x="96" y="201"/>
			<point x="96" y="197" type="curve" smooth="yes"/>
			<point x="96" y="192"/>
			<point x="128" y="186"/>
			<point x="128" y="171" type="curve" smooth="yes"/>
			<point x="128" y="153"/>
			<point x="90" y="133"/>
		</contour>
		<contour>
			<point x="685" y="112" type="curve" smooth="yes"/>
			<point x="688" y="112"/>
			<point x="695" y="114"/>
			<point x="708" y="119" type="curve" smooth="yes"/>
			<point x="756" y="138" type="line" smooth="yes"/>
			<point x="768" y="143"/>
			<point x="771" y="145"/>
			<point x="771" y="154" type="curve" smooth="yes"/>
			<point x="771" y="172"/>
			<point x="763" y="183"/>
			<point x="749" y="183" type="curve" smooth="yes"/>
			<point x="734" y="183"/>
			<point x="711" y="165"/>
			<point x="690" y="128" type="curve" smooth="yes"/>
			<point x="686" y="121"/>
			<point x="683" y="116"/>
			<point x="683" y="114" type="curve" smooth="yes"/>
			<point x="683" y="112"/>
			<point x="684" y="112"/>
		</contour>
		<contour>
			<point x="758" y="104" type="curve" smooth="yes"/>
			<point x="761" y="104"/>
			<point x="770" y="106"/>
			<point x="787" y="109" type="curve" smooth="yes"/>
			<point x="833" y="117" type="line" smooth="yes"/>
			<point x="842" y="119"/>
			<point x="845" y="127"/>
			<point x="845" y="137" type="curve" smooth="yes"/>
			<point x="845" y="154"/>
			<point x="841" y="168"/>
			<point x="826" y="168" type="curve" smooth="yes"/>
			<point x="807" y="168"/>
			<point x="781" y="138"/>
			<point x="765" y="120" type="curve" smooth="yes"/>
			<point x="758" y="112"/>
			<point x="755" y="108"/>
			<point x="755" y="106" type="curve" smooth="yes"/>
			<point x="755" y="104"/>
			<point x="756" y="104"/>
		</contour>
		<contour>
			<point x="153" y="464" type="curve" smooth="yes"/>
			<point x="155" y="464"/>
			<point x="158" y="465"/>
			<point x="166" y="468" type="curve" smooth="yes"/>
			<point x="221" y="488" type="line" smooth="yes"/>
			<point x="226" y="490"/>
			<point x="229" y="492"/>
			<point x="229" y="499" type="curve" smooth="yes"/>
			<point x="229" y="515"/>
			<point x="222" y="534"/>
			<point x="205" y="534" type="curve" smooth="yes"/>
			<point x="191" y="534"/>
			<point x="177" y="511"/>
			<point x="154" y="473" type="curve" smooth="yes"/>
			<point x="152" y="470"/>
			<point x="151" y="468"/>
			<point x="151" y="466" type="curve" smooth="yes"/>
			<point x="151" y="465"/>
			<point x="152" y="464"/>
		</contour>
		<contour>
			<point x="223" y="456" type="curve" smooth="yes"/>
			<point x="225" y="456"/>
			<point x="230" y="457"/>
			<point x="236" y="459" type="curve" smooth="yes"/>
			<point x="252" y="463"/>
			<point x="277" y="472"/>
			<point x="291" y="477" type="curve" smooth="yes"/>
			<point x="298" y="480"/>
			<point x="300" y="485"/>
			<point x="300" y="499" type="curve" smooth="yes"/>
			<point x="300" y="511"/>
			<point x="293" y="518"/>
			<point x="280" y="518" type="curve" smooth="yes"/>
			<point x="270" y="518"/>
			<point x="254" y="510"/>
			<point x="246" y="498" type="curve" smooth="yes"/>
			<point x="224" y="467" type="line" smooth="yes"/>
			<point x="221" y="463"/>
			<point x="220" y="461"/>
			<point x="220" y="459" type="curve" smooth="yes"/>
			<point x="220" y="457"/>
			<point x="221" y="456"/>
		</contour>
		<contour>
			<point x="98" y="21" type="curve" smooth="yes"/>
			<point x="93" y="21"/>
			<point x="88" y="24"/>
			<point x="70" y="39" type="curve" smooth="yes"/>
			<point x="54" y="53"/>
			<point x="49" y="56"/>
			<point x="49" y="61" type="curve" smooth="yes"/>
			<point x="49" y="65"/>
			<point x="51" y="69"/>
			<point x="65" y="86" type="curve" smooth="yes"/>
			<point x="74" y="97"/>
			<point x="79" y="103"/>
			<point x="84" y="103" type="curve" smooth="yes"/>
			<point x="89" y="103"/>
			<point x="96" y="98"/>
			<point x="115" y="82" type="curve" smooth="yes"/>
			<point x="131" y="69"/>
			<point x="135" y="65"/>
			<point x="135" y="60" type="curve" smooth="yes"/>
			<point x="135" y="54"/>
			<point x="128" y="46"/>
			<point x="120" y="38" type="curve" smooth="yes"/>
			<point x="110" y="27"/>
			<point x="102" y="21"/>
		</contour>
	</outline>
</glyph>
<glyph name="yeh-ar.init" format="2">
	<advance width="256"/>
	<outline>
		<contour>
			<point x="0" y="0" type="line"/>
			<point x="128" y="0"/>
			<point x="192" y="72"/>
			<point x="192" y="200" type="curve" smooth="yes"/>
			<point x="192" y="416" type="line"/>
			<point x="176" y="432" type="line"/>
			<point x="112" y="432" type="line"/>
			<point x="96" y="416" type="line"/>
			<point x="96" y="200" type="line" smooth="yes"/>
			<point x="96" y="144"/>
			<point x="56" y="104"/>
			<point x="0" y="104" type="curve"/>
			<point x="-16" y="88" type="line"/>
			<point x="-16" y="16" type="line"/>
		</contour>
		<contour>
			<point x="-128" y="-272" type="curve" smooth="yes"/>
			<point x="-84" y="-272"/>
			<point x="-48" y="-236"/>
			<point x="-48" y="-192" type="curve" smooth="yes"/>
			<point x="-48" y="-148"/>
			<point x="-84" y="-112"/>
			<point x="-128" y="-112" type="curve" smooth="yes"/>
			<point x="-172" y="-112"/>
			<point x="-208" y="-148"/>
			<point x="-208" y="-192" type="curve" smooth="yes"/>
			<point x="-208" y="-236"/>
			<point x="-172" y="-272"/>
		</contour>
		<contour>
			<point x="128" y="-272" type="curve" smooth="yes"/>
			<point x="172" y="-272"/>
			<point x="208" y="-236"/>
			<point x="208" y="-192" type="curve" smooth="yes"/>
			<point x="208" y="-148"/>
			<point x="172" y="-112"/>
			<point x="128" y="-112" type="curve" smooth="yes"/>
			<point x="84" y="-112"/>
			<point x="48" y="-148"/>
			<point x="48" y="-192" type="curve" smooth="yes"/>
			<point x="48" y="-236"/>
			<point x="84" y="-272"/>
		</contour>
	</outline>
</glyph>
